/* XPM */
static char *_2b2e25178be49a0ad1367f25491f58bmNIGBkDcrujqPW8q[] = {
/* columns rows colors chars-per-pixel */
"32 32 222 2 ",
"   c #000200",
".  c #000D00",
"X  c #001400",
"o  c #001E00",
"O  c #071E05",
"+  c #002702",
"@  c #002D01",
"#  c #072804",
"$  c #122D00",
"%  c #003500",
"&  c #003A01",
"*  c #083B08",
"=  c #133700",
"-  c #014301",
";  c #0B4500",
":  c #024B01",
">  c #0C4B01",
",  c #00420C",
"<  c #0A4308",
"1  c #00480E",
"2  c #084A08",
"3  c #154100",
"4  c #154C00",
"5  c #194900",
"6  c #035202",
"7  c #0D5503",
"8  c #0D5D01",
"9  c #03510A",
"0  c #0E5209",
"q  c #00580A",
"w  c #0E5B09",
"e  c #125300",
"r  c #1B5400",
"t  c #145B02",
"y  c #195A02",
"u  c #13530C",
"i  c #1D530B",
"p  c #145E0C",
"a  c #1C5D0A",
"s  c #124613",
"d  c #0D5414",
"f  c #09591A",
"g  c #145E14",
"h  c #1A5B16",
"j  c #255500",
"k  c #245C0A",
"l  c #335A00",
"z  c #2B4410",
"x  c #2A5D1A",
"c  c #0D6203",
"v  c #0D620D",
"b  c #0C690E",
"n  c #166203",
"m  c #1A6201",
"M  c #1C6903",
"N  c #15620D",
"B  c #1B620B",
"V  c #156A0D",
"C  c #1D6B0B",
"Z  c #0E6814",
"A  c #1B6417",
"S  c #136B12",
"D  c #1E6B15",
"F  c #12641E",
"G  c #14691C",
"H  c #1E6A1B",
"J  c #1B7514",
"K  c #246301",
"L  c #2D6200",
"P  c #236C01",
"I  c #2A6B03",
"U  c #226108",
"Y  c #2C620A",
"T  c #236C0D",
"R  c #2E6D0B",
"E  c #376807",
"W  c #2E7600",
"Q  c #26760A",
"!  c #2D720F",
"~  c #2C7C0C",
"^  c #367704",
"/  c #3A7503",
"(  c #3A760D",
")  c #35780F",
"_  c #3D7C0B",
"`  c #236316",
"'  c #246D11",
"]  c #2A6B13",
"[  c #216219",
"{  c #246D1A",
"}  c #296C1B",
"|  c #366A15",
" . c #396D15",
".. c #267C14",
"X. c #2B7913",
"o. c #2C761B",
"O. c #2A781A",
"+. c #387615",
"@. c #337E1C",
"#. c #075821",
"$. c #105D22",
"%. c #0A652E",
"&. c #1A6423",
"*. c #186329",
"=. c #1E732F",
"-. c #197939",
";. c #276D23",
":. c #287526",
">. c #277A23",
",. c #2C7C2E",
"<. c #397724",
"1. c #257738",
"2. c #387F38",
"3. c #44680B",
"4. c #457803",
"5. c #4D7C0A",
"6. c #53700B",
"7. c #447D15",
"8. c #5C782E",
"9. c #1F9218",
"0. c #26850D",
"q. c #3B8109",
"w. c #3B8508",
"e. c #288619",
"r. c #2F811D",
"t. c #2E891A",
"y. c #358515",
"u. c #388914",
"i. c #35811D",
"p. c #3C831E",
"a. c #35891A",
"s. c #398B1B",
"d. c #288928",
"f. c #2A892E",
"g. c #368525",
"h. c #3A8527",
"j. c #348D2D",
"k. c #38892C",
"l. c #3D9726",
"z. c #2A8839",
"x. c #358136",
"c. c #3A8A33",
"v. c #34853C",
"b. c #2C9938",
"n. c #3A9637",
"m. c #45870A",
"M. c #4A830D",
"N. c #538A0D",
"B. c #55940D",
"V. c #418617",
"C. c #478514",
"Z. c #41841A",
"A. c #458B1D",
"S. c #4C8B1B",
"D. c #52881C",
"F. c #4B941C",
"G. c #49991E",
"H. c #5D9313",
"J. c #53951B",
"K. c #5B9E1C",
"L. c #609904",
"P. c #688E14",
"I. c #66931B",
"U. c #41A11D",
"Y. c #74B517",
"T. c #448C25",
"R. c #4A8925",
"E. c #4A9325",
"W. c #4C9B25",
"Q. c #4A922C",
"!. c #439A2C",
"~. c #4A9A2A",
"^. c #519524",
"/. c #54912E",
"(. c #549B2A",
"). c #5B9A2A",
"_. c #459637",
"`. c #439937",
"'. c #669429",
"]. c #769D29",
"[. c #649B37",
"{. c #4DA626",
"}. c #4BA42F",
"|. c #58A627",
" X c #5BA535",
".X c #5EAB36",
"XX c #4DB136",
"oX c #55B437",
"OX c #68A32B",
"+X c #72AA2E",
"@X c #7FB22A",
"#X c #65A934",
"$X c #73AA37",
"%X c #63B336",
"&X c #68B53C",
"*X c #6FC137",
"=X c #16804E",
"-X c #3D8E4A",
";X c #2D9549",
":X c #299258",
">X c #449D44",
",X c #529A41",
"<X c #56A743",
"1X c #5BAE4D",
"2X c #48A55A",
"3X c #55AD55",
"4X c #63AE43",
"5X c #68A940",
"6X c #65B446",
"7X c #78B44D",
"8X c #60BC55",
"9X c #419F6D",
"0X c #5CA368",
"qX c #63BC60",
"wX c #70C441",
"eX c #74C553",
"rX c #64C374",
"tX c #88AA2E",
"yX c #96C529",
"uX c #84D139",
"iX c #82C648",
"pX c #B1E152",
/* pixels */
"tXc.6XN w OXk F.l y y M.M X s.! u n = % - ! ` > ; E.& d - F.i.  ",
"2.R.F.) -.0.N 6 % 1 g I.h.> J.< ` ^.e N k B M > < ~ 8 { 7 w.5.<.",
"k L.8 k g.w._.8.].H.I./ 3.t q s $.T.B.  N.D.A.P H ] <.2.2 ) M %X",
"t % @X. E.,.N.z 7XqX;XT.% 6 -XK R.2X5 - ` % >.> M - C.'.u 7.5.g.",
"p + .X% ! 9XW.o D / |.p.C.G h.f N 6Xf - @ _ S.e K u : & :.O.M <.",
"' 0 &.Q.@ U eXv.; x.: f #X>X# [.s.m _.u I @ D 9 T L * +.5.5.=.B ",
"t.$.+ _.> ] @.,X] C ( w b.3Xl pXj.  l.& ,.@ @.9 &.% @ w $ M.M :.",
"..O.0.{.% n / D >Xi.&.a.V <X#.m <X  e K.# $X= j.2 % 8 2   & ! } ",
"`.N u.U.1.1 ; N.> }.1 yXP.y.iX].#Xk.E q.& Q.. C /.O : t X 2 { : ",
"F.-.6 C.Q.2.+ T , C +XW J | 4Xe.d.r u.Z 8 $.% 6 >.:./.h C ! 1.> ",
"4.XX7 I T T.,.%.F w |.f.: }.& =XoX1.E ~ j.+.< y.D [ +.5 a ; F.g ",
"* .Xl.o 0.B ).C :Xo.e Z.x.{.5.5Xb.;XX 9 W.O Q (.X.|.& - a % y.1 ",
":.B.a.* <.u h V.S a ; j 4.#X; v.F.<Xi ( D + X./ % &X& t @ % F.;.",
"% S 8Xd p +.7.%Xn.&.~.R 4 y.}.9 : eX&XL R >.C.B.  ^ D.p.+ o g.i ",
"R.1X;.Y > 1 > oX4 A.n.$.x 5.F.{ p *XrX; y #X^ & 2 6.L wX. - ^.n ",
"> / .Xt 3 rX*X0 H S.N. .[ n.R.3 .X> d 6 p :.1X'.N & T 0.[ h.} / ",
"B.C.r.R L &XeX: 9 |.u.4 R ~.&.n.%X7.) p d 8XZ % n L.^ c.N J S P ",
"^ X.+ D ( a <XG.-X- .X4.j : a S u.h i <.* y.B.1.> uXz X.s.W V.g.",
"(.T O W.9 b ;Xb.#X5.U.c.Z.e o.:XD ).B ~ + l.%X* ( 1X> h ..E., 1 ",
"u.< +.j...E 1.oX=X% }.: f.(.8 F %.,.k.T P > XX4.l.N :.5...f.7 y ",
"6 % %.t b V.r d.d.4X| D W +XC , T @ 2.Q.A.2 1.F.`.] + R b P  XN.",
"C . Q.& q.E k.#X].iXy.P.yX1 }.e B.; : 1.U.u.v `.e.- *.z.g -.D ^.",
"j.= +X+ K.e Z ,Xm #.<Xb s.F i.>XD / c % {.0.O...!.N e.n b |.& o.",
"9 @.@ ,.& b b j.pXl 3Xb.w ( T ] ,X@.! ; `.o $.t.d.~ J J.L $Xy + ",
"9 { @ I u _.m s.[.$ >X#Xf : x.; v.eXU @ Q.&.u Q Y.y 0.% f.t E.j ",
"e S.4.% - #.6XN f h.G 7.h.|./ D o W.9XX.% .X+ N a.m.^ K 1 @ !. X",
"> >.% ` - 5 2XT.L -X6 % T.;XqX7Xz N.:.E.. @X@ y *.G.B T J.Y . n.",
"M A.D.N.  N.T.*.s q t 3./ I.H.].8.,Xw.i.Y 8 B.k 0X9.I - 7Xm.$ i.",
"> M N k N e ^.[ < J.7 h.I.g - % 6 N 0.-.X.F.R.x.a.J w.>._.u.- S ",
"> D | - % = n e ! s.X C M.y y l E.j OXw N 6Xc.tXT.h I T.@.{ : >.",
"4 o h V - 4 I.| &.A.r ~ T 3.p.K.@ ( @.g.d |.- d.n D U ..] + G n ",
"A K > r > o.> o 8 g.t j 6 +.1XV L @XX.l.@ l.+.S.Q L A.> E y h.B "
};
