/* XPM */
static char *_0473_1aff1b03c9ddf013ac518d3d0b8fb4c75bf223e3bb1353a5813652e3c254bfd7[] = {
/* columns rows colors chars-per-pixel */
"64 64 234 2 ",
"   c #0B0E04",
".  c #090C04",
"X  c #180800",
"o  c #0C1106",
"O  c #0E140A",
"+  c #0F1909",
"@  c #101206",
"#  c #11150D",
"$  c #121B0C",
"%  c #1D1808",
"&  c #151B12",
"*  c #181C11",
"=  c #390D04",
"-  c #281B09",
";  c #2E0C06",
":  c #16240D",
">  c #192C0F",
",  c #16290C",
"<  c #1A2414",
"1  c #1D2B14",
"2  c #1E2718",
"3  c #1E3212",
"4  c #1E3811",
"5  c #1A310E",
"6  c #27220D",
"7  c #212D15",
"8  c #2C2D17",
"9  c #232D1B",
"0  c #252511",
"q  c #3F2812",
"w  c #223B15",
"e  c #25341B",
"r  c #2C341B",
"t  c #263C19",
"y  c #2A3B1E",
"u  c #283515",
"i  c #323B1D",
"p  c #37371C",
"a  c #293521",
"s  c #2C3B23",
"d  c #333E24",
"f  c #313D28",
"g  c #3A3D21",
"h  c #363E30",
"j  c #450400",
"k  c #4C0300",
"l  c #4A0C07",
"z  c #540301",
"x  c #5C0403",
"c  c #540A09",
"v  c #5D0C0A",
"b  c #570806",
"n  c #431909",
"m  c #5D130C",
"M  c #541309",
"N  c #5C1413",
"B  c #5B1B1A",
"V  c #4F1211",
"C  c #650302",
"Z  c #6C0302",
"A  c #6A0906",
"S  c #630D0B",
"D  c #6B0E0C",
"F  c #620B04",
"G  c #740201",
"H  c #7A0403",
"J  c #740907",
"K  c #7C0807",
"L  c #720C0B",
"P  c #7C0D0B",
"I  c #66100F",
"U  c #6D110F",
"Y  c #6C1C0F",
"T  c #73110F",
"R  c #7A110F",
"E  c #611411",
"W  c #6C1413",
"Q  c #631C1C",
"!  c #6B1C1C",
"~  c #621914",
"^  c #721412",
"/  c #7B1715",
"(  c #472A15",
")  c #572314",
"_  c #46321C",
"`  c #57321C",
"'  c #76261E",
"]  c #62201F",
"[  c #5E2122",
"{  c #5B282A",
"}  c #4B3E21",
"|  c #573C25",
" . c #6B2323",
".. c #662828",
"X. c #782626",
"o. c #693A3B",
"O. c #712E31",
"+. c #254315",
"@. c #2B441B",
"#. c #2D4B1C",
"$. c #274318",
"%. c #35441D",
"&. c #34541F",
"*. c #2E4222",
"=. c #2F4820",
"-. c #324226",
";. c #3B4324",
":. c #334B24",
">. c #344329",
",. c #374C2A",
"<. c #3A4C2C",
"1. c #39482A",
"2. c #355224",
"3. c #3D552E",
"4. c #3D592C",
"5. c #3B5526",
"6. c #3A4731",
"7. c #3F5730",
"8. c #3E6826",
"9. c #434C2C",
"0. c #424328",
"q. c #45562B",
"w. c #464E35",
"e. c #564B31",
"r. c #445232",
"t. c #4B5433",
"y. c #435B33",
"u. c #44533A",
"i. c #4B5B39",
"p. c #4A563A",
"a. c #525332",
"s. c #575737",
"d. c #694933",
"f. c #466434",
"g. c #4C633B",
"h. c #496935",
"j. c #45722C",
"k. c #525944",
"l. c #4E5F43",
"z. c #675B47",
"x. c #714E49",
"c. c #546B45",
"v. c #73755A",
"b. c #840403",
"n. c #8C0403",
"m. c #840807",
"M. c #8A0B06",
"N. c #820B0A",
"B. c #8B0B0A",
"V. c #940302",
"C. c #9B0302",
"Z. c #940907",
"A. c #9A0807",
"S. c #940B0A",
"D. c #9C0B0A",
"F. c #9B0708",
"G. c #87100E",
"H. c #98120E",
"J. c #881715",
"K. c #941413",
"L. c #9C1414",
"P. c #9A1A18",
"I. c #A30302",
"U. c #AC0302",
"Y. c #A20907",
"T. c #AC0806",
"R. c #A40B0A",
"E. c #AC0B0A",
"W. c #B40302",
"Q. c #BC0302",
"!. c #B20806",
"~. c #BB0806",
"^. c #B30C0A",
"/. c #BB0C0A",
"(. c #A9110E",
"). c #B4110E",
"_. c #BD110D",
"`. c #A31B19",
"'. c #A81715",
"]. c #BB1513",
"[. c #B61A18",
"{. c #95221E",
"}. c #AE221F",
"|. c #9B2726",
" X c #8E302D",
".X c #A72826",
"XX c #B62626",
"oX c #A93837",
"OX c #BA3131",
"+X c #AB312F",
"@X c #C30302",
"#X c #CB0302",
"$X c #C30807",
"%X c #CA0806",
"&X c #C40C0A",
"*X c #CA0C0B",
"=X c #D20503",
"-X c #D30906",
";X c #D20B0A",
":X c #D80C0B",
">X c #C3110D",
",X c #CB110E",
"<X c #D50F11",
"1X c #C41312",
"2X c #CC1413",
"3X c #C91919",
"4X c #D31413",
"5X c #DB1212",
"6X c #D31C1C",
"7X c #DA1A1B",
"8X c #D4161B",
"9X c #C70F11",
"0X c #E31D1F",
"qX c #D0201F",
"wX c #CC292C",
"eX c #DC2224",
"rX c #D9292C",
"tX c #D62527",
"yX c #DC3032",
"uX c #E2282A",
"iX c #E42E34",
"pX c #E43034",
"aX c #E3383C",
"sX c #E33C43",
"dX c #BE4947",
"fX c #AB5051",
"gX c #B56B6A",
"hX c #E6444B",
"jX c #EB555F",
"kX c #EE5A62",
"lX c #C06A6D",
"zX c #F26771",
"xX c #728663",
"cX c None",
/* pixels */
"cXcXcXcXcXcXcXcXcXcXcXcXcXcXcXcXcXcXcXcXcXcXcXcXcXcXcXcXcXcXcXcXcXcXcXcXcXcXcXcXcXcXcXcXcXcXcXcXcXcXcXcXcXcXcXcXcXcXcXcXcXcXcXcX",
"cXcXcXcXcXcXcXcXcXcXcXcXcXcXcXcXcXcXcXcXcXcXcXcXcXcXcXcXcXcXcXcXcXcXcXcXcXcXcXcXcXcXcXcX=.:.cXcXcXcXcXcXcXcXcXcXcXcXcXcXcXcXcXcX",
"cXcXcXcXcXcXcXcXcXcXcXcXcXcXcXcXcXcXcXcXcXcXcXcXcXcXcXcXcXcXcXcXcXcXcXcXcXcXcXcXcX$.4 4 =.cXy.cXcXcXcXcXcXcXcXcXcXcXcXcXcXcXcXcX",
"cXcXcXcXcXcXcXcXcXcXcXcXcXcXcXcXcXcXcXcXcXcXcXcXcXcXcXcXcXcXcXcXcXcXcXcXcXcXcX:.4 > 5 +.4.:.,.cXcXcXcXcXcXcXcXcXcXcXcXcXcXcXcXcX",
"cXcXcXcXcXcXcXcXcXcXcXcXcXcXcXcXcXcXcXcXcXcXcXcXcXcXcXcXcXcXcXcXcXcXcXcXcXcXt 1 > 3 @.=.,.>.<.cXcXcXcXcXcXcXcXcXcXcXcXcXcXcXcXcX",
"cXcXcXcXcXcXcXcXcXcXcXcXcXcXcXcXcXcXcXp.cXcXcXcXcXcXcXcXcXcXcXcXcXcXcXcXcXe : 1 > $.$.s -.>.6.6.cXcXcXcXcXcXcXcXcXcXcXcXcXcXcXcX",
"cXcXcXcXcXcXcXcXcXcXcXcXcXcXcXcXcXcXcX<.r.cXcXcXcXcXcXcXcXcXcXcXcXcX:.cXy 1 2 > 7.$.3 a s 6.>.f cXcXcXcXcXcXcXcXcXcXcXcXcXcXcXcX",
"cXcXcXcXcXcXcXcXcXcXcXcXcXcXcXcXcXcXcX7.<.y.h.g.cXcXcXcXcXcXcXcX4.w =.:.3 e t cXt 1 a s -.,.f *.cXcXcXcXcXcXcXcXcXcXcXcXcXcXcXcX",
"cXcXcXcXcXcXcXcXcXcXcXcXcXcXcXcXcXcXcX5.7.y.y.y.h.f.f.8.8.cXcX=.w 4 #.t a cXcX2., 2 a -.f >.>.f cXcXcXcXcXcXcXcXcXcXcXcXcXcXcXcX",
"cXcXcXcXcXcXcXcXcXcXcXcXcXcXcXcXcX5.cXcX,.f.f.y.y.7.f.h.8.j.+.5 , , @.s cXcXcX3 1 e a *.*.>.s >.cXcXcXcXcXcXcXcXcXcXcXcXcXcXcXcX",
"cXcXcXcXcXcXcXcXcXcXcXcXcXcXcXcXcXq.&.q.g.g.i.g.y.4.4.4.h.$.: : : , @.cXcXcX,.> 1 e a *.>.s s s cXcXcXcXcXcXcXcXcXcXcXcXcXcXcXcX",
"cXcXcXcXcXcXcXcXcXcXcXcXcXcXcXcXcXcXa.r.r.t.i.g.g.3.4.y.3.: : & + 5 :.cXcXcXa 2 e s s -.>.s s s cXcXcXcXcXcXcXcXcXcXcXcXcXcXcXcX",
"cXcXcXcXcXcXcXcXcXcXcXcXcXcXcXcXcXcXgXd.9.r.a.} a.y.y.r.y + + + $ w ,.cXcXcX9 a s s *.>.s s s s cXcXcXcXcXcXcXcXcXcXcXcXcXcXcXcX",
"cXcXcXcXcXcXcXcXcXcXcXcXcXcXcXcXK..XP.N.` t.a.s.) ) ( %.r O o O + 1 e cXcXcXs s s s >.*.y s s f cXcXcXcXcXcXcXcXcXcXcXcXcXcXcXcX",
"cXcXcXcXcXcXcXcXcXcXcXcXcXcX+XS.Z.n.Z.H G ) a.9.s.e._ ( - O . O + 7 e i.cXcX>.s >.s >.e y a e 6.cXcXcXcXcXcXcXcXcXcXcXcXcXcXcXcX",
"cXcXcXcXcXcXcXcXcXcXcXcXcXdXXX'.S.Z.n.b.G Z I s.w.9.9.9.g 8 O . # y t %.xXcXu.>.f s a a s a s cXcXcXcXcXcXe cXcXcXcXcXcXcXcXcXcX",
"cXcXcXcXcXcXcXcXcXcXcXcXdXXXT.T.T.Y.V.n.Z x C v | e.t.t.t.0.8 O @ %.@.$.,.cXl.*.*.f e a a a p.cXcXcXcXcXcX1 cXcXcXcXcXcXcXcXcXcX",
"cXcXcXcXcXcXcXcXcXcXcX.XwX^.!.3X_.1XE.^.[.(.Z.H Z Z v M n ; ; %   i @.$.$.c.c.:.*.*.s s f 6.cXcXcXcXcXcXe e cXcXcXcXcXcXcXcXcXcX",
"cXcXcXcXcXcXcXcXcXcX X'.T.T.)./.~.&XQ.3X~.W.U.U.I.I.V.b.Z z ; X   7 t #.4 t 7.2.w t f 1 w.cXcXcXcXcXcXcX< cXcXcXcXcXcXcXcXcXcXcX",
"cXcXcXcXcXcXcXcXcXlXwX_.Q.W.&XQ.Q.^./.W.^.R.Q.U.U.Q.~.I.V.Z = X o : 1 4 $.#.+.&.:.e : : cXcXcXcXcXcXcX2 < cXcXcXcXcXcXcXcXcXcXcX",
"cXcXcXcXcXcXcXcXcXOX[.Q.~.T.*XQ.~.Q.Q.W.U.U.Q.Q.Q.U.D.~.V.G l X : t u w :.:.#.&.3 1 < 2 cXcXcXcXcXcX2 # cXcXcXcXcXcXcXcXcXcXcXcX",
"cXcXcXcXcXcXcXcXoXZ.].~.T.~.Q.@XQ.Q.@X@X#X@X@XQ.Q.I.V.I.C.H n r %.-.=.#.#.5.2.5 $ $ + $ cXcXcXcXcXe & & cXcXcXcXcXcXcXcXcXcXcXcX",
"cXcXcXcXcXcXcXcXP.S.1X%XQ.@X@X%X@X@X%X5X=X@X#X#X@X@XQ.W.V.m i *.*.s =.$.$.=.+ . o   + $ k.cXcXcX9 & # cXcXcXcXcXcXcXcXcXcXcXcXcX",
"cXcXcXcXcXcXcXcXXX].*XQ.$X%X@X/.I.@X7X].U.@X#X7XhXhX>XW.M.p i :.=.,.*.@.@.u . . . .   o 9.v.p.* # # * cXcXcXcXcXcXcXcXcXcXcXcXcX",
"cXcXcXcXcXcXcXoX).^.&X$XY.@XQ.W.@X@X@XU.W.#X#X:X~.4X4XW.Y ;.:.;.,.:.=.:.*.e . .   #   o 8 i < # # O cXcXcXcXcXcXcXcXcXcXcXcXcXcX",
"cXcXcXcXcXcXcXH.T.E.~.$X@XQ.@X@X@X@X@X#X#X#X=XW.V.U.Q.Y.` %.;.:.r @.=.,.-.u X X X % 8 0 0 d >.>.6.l.cXcXcXcXcXcXcXcX9 9 cXcXcXcX",
"cXcXcXcXcXcXoXK.I.R.@X@X@X@X#X#X@X#X=X#X#X=X=X*X/.$X$XD.e._ i r -.t :.<.%.= k k j = 8 8 8 p >.a a a a 2 & # # # # # # # # 2 cXcX",
"cXcXcXcXcXcX X[.).W.Q.#X@X@X$XW.#X%X*XQ.#X#X5XuXhXiXW.C.I } %.;.;.;.g q j C G G C x ( i r 8 8 >.7.cX9 # . O O # O O # # # # & cX",
"cXcXcXcXcXcX|..XU.~.Q.1XU.@X).W.@X:XU.W.#X:X#X@X4XpXU.C.b.U ` ` ) M C G H n.C.n.H G l _ d g r 9 l.a cXcXcXcXcXcXcXcXcXcXcXcXcXcX",
"cXcXcXcXcXcXK.R.W.Y.Q.~.Q.#X#X@X#X#X#X#X#XuX@XI.Q.sXW.V.V.G C G Z Z V.U.U.W.U.C.C.n.G k ( ;.g 0 a 2 cXcXcXcXcXcXcXcXcXcXcXcXcXcX",
"cXcXcXcXcXcXK.R.U.Y.Q.#X@X#X#X#X=X=X=X=X=XuXqX~.rXaXU.V.V.n.n.V.n.C.W.~.$XQ.W.W.U.C.n.H k q g g < * k.cXcXcXcXcXcXcXcXcXcXcXcXcX",
"cXcXcXcXcXcX.XE.U.W.Q.#X@X#X-X@X#X:X=X#X=X5XpXrX2X,X%X~.U.I.I.W.W.~.*XeX,XW.W.2XW.I.I.V.G k = - & a e s cXcXcXcXcXcXcXcXcXcXcXcX",
"cXcXcXcXcXcXL.[.U.$XQ.*XW.#X3XI.#X-XW.I.:XiX4X#X8XQ.W.tXwXI.V.W.2XuXQ.6XrXU.C.tXW.U.W.C.H.G z = - > u e s cXcXcXcXcXcXcXcXcXcXcX",
"cXcXcXcXcXcXH.D.W.T.Q.~.U.#X*X@X=X:X1X#XuX@X@X@XtXQ.U.%XaXW.U.2XzX3XC.U.6XQ.C.&XW.I.6XI.M.b.Z j - @ 9 1 e cXcXcXcXcXcXcXcXcXcXcX",
"cXcXcXcXcXcXL.S.~.V.Q.@X@X#X=X=X=X:X=X5X0X@XI.Q.#XW.I.@XhXjXiXhXzX3Xb._.sX#XQ.&XU.V.wXU.C.V.H z n 6 1 1 2 cXcXcXcXcXcXcXcXcXcXcX",
"cXcXcXcXcXcX.XE.U.~.Q.#X;X=X%X=X#X=X:X0XuX#XQ.#XeX*X%X<X<X$X@X*X4X@X&XkXeX$XQ.W.W.I.$XU.I.C.b.x ) _ i e , a cXcXcXcXcXcXcXcXcXcX",
"cXcXcXcXcXJ.P.]././.*X%X$X~.@XW.#X@X#X-X0XuX=X=X:XiX7X;X<X@XW.W.iX@X%XqX%X@XQ.Q.W.W.U.U.I.C.b.Z ' e.z.cX1 1 cXcXcXcXcXcXcXcXcXcX",
"cXcXcXcXcX|.`.Y.R.$X^.*X^.U.%XI.Q.@XC.#X#X#X#X#X7X7X@X%XsX@XU.U.eX@X@X@XQ.Q.Q.Q.W.W.U.U.I.V.b.G  X) z.cXcX1 9 h cXcXcXcXcXcXcXcX",
"cXcXcXcXcXfX+XT.Y.&XV.$X~.$X%X@X#X@X@X@X@XQ.I.@XtX6XC.U.iX%X@X%X%XQ.@XQ.W.I.*XW.W.W.U.U.I.V.b.J.' l x.cXcXcXcXcXcXcXcXcXcXcXcXcX",
"cXcXcXcXcX|.'.[.W./.~.*X;X*X%X*X%X$X@X@X#XQ.U.#X;X6XW.$XhX@X#X@XQ.I.Q.@XU.Y.@XQ.W.W.I.C.Y.n.b.J.v c x.cXcXcXcXcXcXcXcXcXcXcXcXcX",
"cXcXcXcXcXJ.A.D.&X2X,X*X~./.%X/.*X%XU.U.*X*X#X@X#X4XyXyX*X#X@X@XQ.R.6X~.Q.>XQ.C.T.~.C.F.D.V.N.C S ~ cXcXcXcXcXcXcXcXcXcXcXcXcXcX",
"cXcXcXcXcXoX(.A./.).A.$XU.Y.Q.V.U.Q.U.Q.%X@X@XW.@X#X@X@X@X#XQ.@XQ.*X@XQ.Q.Q.W.A.1XT.U.V.F.Z.J D  .O.cXcXcXcXcXcXcXcXcXcXcXcXcXcX",
"cXcXcXcXcX.X'.^.1X~.W.*X$X$X$XW.Q.@X@X$X;X@XW.C.@X@X@X@XC.U.Q.@X@XQ.Q.Q.Q.W.W.~.U.U.C.F.B.M.P X.O.o.cXcXcXcXcXcXcXcXcXcXcXcXcXcX",
"cXcXcXcXcX`.L./.1X>X,X2X9X*X*X%X*X%XQ.U.I.%X2X#X@X@X@XQ.W.*XQ.Q.Q.W.I.I.W.W.U.U.U.C.R.b.G H  X . .cXcXcXcXcXcXcXcXcXcXcXcXcXcXcX",
"cXcXcXcXcX`.Z./.].R.~.C.W.U.F.$XI.^.*XU.U.%X@X@XW.W.$X@X$XQ.U.I.Q.W.I.T.~.U.U.C.Y.C.S.H H / X.l ..cXcXcXcXcXcXcXcXcXcXcXcXcXcXcX",
"cXcXcXcXcXK.)._./.~.$X~.~.~.W.~.U.W.*X$X@X%X@XQ.I.W.Q.Q.Q.Q.I.~.Q.W.W.W.W.I.C.m.Z.V.S.N.R W N V cXcXcXcXcXcXcXcXcXcXcXcXcXcXcXcX",
"cXcXcXcXcX`.).).&X,X*X2X9X*X*X*X$X*X*XQ.W.V.*X@X$XQ.~.~.Q.Q././.Q.Q.U.U.V.C.C.n.n.B.L L I Q ..cXcXcXcXcXcXcXcXcXcXcXcXcXcXcXcXcX",
"cXcXcXcXcX+X].n.$X~.V.&XW.^.~./.*XI.T.@X&XW.$X*X&X$XC.C.$XQ.W.V.W.W.U.F.A.V.V.n.b.L x C ! O.o.cXcXcXcXcXcXcXcXcXcXcXcXcXcXcXcXcX",
"cXcXcXcXcX`.).W.&X&XW.$XU.T.!.V.&XU.~.>X*XQ.~.V.^.~.W.W.~.~.U.R.U.U.U.F.F.Z.K J P A F E Q { cXcXcXcXcXcXcXcXcXcXcXcXcXcXcXcXcXcX",
"cXcXcXcXcXB.[._.,X%X%X%X*X@X>XQ.>X*X*XT.A.*XW.R.~.$X~.Y.^.^.U.T.T.R.B.H B.N.J J / ! S B cXcXcXcXcXcXcXcXcXcXcXcXcXcXcXcXcXcXcXcX",
"cXcXcXcXcX+X[./.C.&X%XT.&X&X~.&XU.Z.&XU.U.*X!.U.Y./.U.Z.U.T.F.H F.Z.H H N.P L S x Q ..cXcXcXcXcXcXcXcXcXcXcXcXcXcXcXcXcXcXcXcXcX",
"cXcXcXcXcX`.[._.T.@X*XC.Q.@XV.~./.W.&X&XT.&XW.V.V.~.I.E.I.I.V.n.n.B.N.P x A W b v ..cXcXcXcXcXcXcXcXcXcXcXcXcXcXcXcXcXcXcXcXcXcX",
"cXcXcXcXcXD.H./.$X%X2X$X*X,XQ.,X~./.&XU.b.!.U.I.U.U.I.Z.b.D.Z.N.A N.R C C S ! ..{ cXcXcXcXcXcXcXcXcXcXcXcXcXcXcXcXcXcXcXcXcXcXcX",
"cXcXcXcXcXH.M.(.~.*X$X@XQ./.&XT.~.C.Z.W.W.T.!.C.H D.V.N.N.n.m.G Z Z T D E c [ cXcXcXcXcXcXcXcXcXcXcXcXcXcXcXcXcXcXcXcXcXcXcXcXcX",
"cXcXcXcXcXK.Y.).~.T.A.@XT.Y.W.V.U.T.T.T.Y.D.Y.V.n.n.S.m.H P L L T b I ! ] cXcXcXcXcXcXcXcXcXcXcXcXcXcXcXcXcXcXcXcXcXcXcXcXcXcXcX",
"cXcXcXcXcX|.(.^.!./.~./././.W.T.T.Y.Y.Y.n.H S.n.b.K C P P x x U E c ] cXcXcXcXcXcXcXcXcXcXcXcXcXcXcXcXcXcXcXcXcXcXcXcXcXcXcXcXcX",
"cXcXcXcXcX{.`.(.E.T.^.^.!.^.(.Y.R.R.m.N.n.M.M.G.P G Z L D I W ..[ cXcXcXcXcXcXcXcXcXcXcXcXcXcXcXcXcXcXcXcXcXcXcXcXcXcXcXcXcXcXcX",
"cXcXcXcXcXT H.P M.Y.A.H R.Z.Z S.K N.H K G.N.R x A ^ W v v ] cXcXcXcXcXcXcXcXcXcXcXcXcXcXcXcXcXcXcXcXcXcXcXcXcXcXcXcXcXcXcXcXcXcX",
"cXcXcXcXcXT J.S.Z.Z.Z.M.Z.M.M.M.J K P P T I T A S ! B [ cXcXcXcXcXcXcXcXcXcXcXcXcXcXcXcXcXcXcXcXcXcXcXcXcXcXcXcXcXcXcXcXcXcXcXcX",
"cXcXcXcXcXX./ J.G.N.G.M.M.K P K J L ! W I S !  .cXcXcXcXcXcXcXcXcXcXcXcXcXcXcXcXcXcXcXcXcXcXcXcXcXcXcXcXcXcXcXcXcXcXcXcXcXcXcXcX",
"cXcXcXcXcXcXI v J z L P J b T L b v  . .cXcXcXcXcXcXcXcXcXcXcXcXcXcXcXcXcXcXcXcXcXcXcXcXcXcXcXcXcXcXcXcXcXcXcXcXcXcXcXcXcXcXcXcX",
"cXcXcXcXcXcXcXE U A T W F I I N B cXcXcXcXcXcXcXcXcXcXcXcXcXcXcXcXcXcXcXcXcXcXcXcXcXcXcXcXcXcXcXcXcXcXcXcXcXcXcXcXcXcXcXcXcXcXcX",
"cXcXcXcXcXcXcXcX..E E I V cXcXcXcXcXcXcXcXcXcXcXcXcXcXcXcXcXcXcXcXcXcXcXcXcXcXcXcXcXcXcXcXcXcXcXcXcXcXcXcXcXcXcXcXcXcXcXcXcXcXcX",
"cXcXcXcXcXcXcXcXcXcXcXcXcXcXcXcXcXcXcXcXcXcXcXcXcXcXcXcXcXcXcXcXcXcXcXcXcXcXcXcXcXcXcXcXcXcXcXcXcXcXcXcXcXcXcXcXcXcXcXcXcXcXcXcX"
};
