/* XPM */
static char *_1347_069f5e556257a6d8cd7d6ccffe26794458e955bfc577391b9dda4a92277332b7[] = {
/* columns rows colors chars-per-pixel */
"64 64 127 2 ",
"   c #517C68",
".  c #01974D",
"X  c #019D4B",
"o  c #0C9D4E",
"O  c #129A4C",
"+  c #158F56",
"@  c #1D8B55",
"#  c #079752",
"$  c #0E9651",
"%  c #049D52",
"&  c #0D9D55",
"*  c #0D9D58",
"=  c #129555",
"-  c #1B9656",
";  c #139B55",
":  c #1B9855",
">  c #15975B",
",  c #1C955C",
"<  c #149B5A",
"1  c #1A9A5C",
"2  c #248751",
"3  c #2D8457",
"4  c #248D56",
"5  c #298C56",
"6  c #2B865B",
"7  c #268E5B",
"8  c #2B8D5B",
"9  c #338C56",
"0  c #34865B",
"q  c #3C845F",
"w  c #358C5D",
"e  c #3D8F5E",
"r  c #239356",
"t  c #25925B",
"y  c #2C915E",
"u  c #239A5D",
"i  c #3C905F",
"p  c #00A445",
"a  c #01A54E",
"s  c #0CA14F",
"d  c #00A94D",
"f  c #09A94F",
"g  c #01A653",
"h  c #0DA154",
"j  c #01A952",
"k  c #0AA956",
"l  c #02A559",
"z  c #0CA25A",
"x  c #03AA5A",
"c  c #09AB58",
"v  c #14A054",
"b  c #1AA353",
"n  c #13A25B",
"m  c #19A05B",
"M  c #08B05B",
"N  c #1A9D61",
"B  c #218F62",
"V  c #2E8D61",
"C  c #3C8562",
"Z  c #338D63",
"A  c #3A8B63",
"S  c #3B8A6A",
"D  c #259261",
"F  c #2D9161",
"G  c #249962",
"H  c #289A67",
"J  c #319663",
"K  c #3D9064",
"L  c #3E9068",
"P  c #16A160",
"I  c #1BA261",
"U  c #41855C",
"Y  c #408C5D",
"T  c #418663",
"R  c #428D65",
"E  c #4A8068",
"W  c #44896C",
"Q  c #50816C",
"!  c #41916A",
"~  c #60B78C",
"^  c #64BC8C",
"/  c #68B998",
"(  c #75B791",
")  c #7BE2AD",
"_  c #86CDAF",
"`  c #95C3AC",
"'  c #9BD4B4",
"]  c #97D9B5",
"[  c #98D8B6",
"{  c #9DD5B8",
"}  c #95DDBF",
"|  c #AEC9BA",
" . c #B4CCBF",
".. c #A2D5B6",
"X. c #A1D3B8",
"o. c #AED1BC",
"O. c #8AE2AF",
"+. c #AAD3C3",
"@. c #9CF7CB",
"#. c #A9FFE6",
"$. c #B1FFEA",
"%. c #BCFFED",
"&. c #CBFFE3",
"*. c #C2FFEC",
"=. c #CCFFED",
"-. c #D4FFED",
";. c #DEFFEF",
":. c #C4FFF0",
">. c #CDFFF3",
",. c #D4FFF3",
"<. c #DAFFF4",
"1. c #D4FFF9",
"2. c #DCFFFA",
"3. c #ECEDE7",
"4. c #ECEEED",
"5. c #F3E6ED",
"6. c #F3EBEC",
"7. c #EFFFEC",
"8. c #E3FFF5",
"9. c #EBFFF4",
"0. c #E4FFFA",
"q. c #EEFFFA",
"w. c #F3FEF6",
"e. c #FCFFF6",
"r. c #FDF6FC",
"t. c #F3FFFB",
"y. c #FEFEFE",
/* pixels */
"y.y.y.y.y.y.y.y.y.y.r.y.y.y.y.y.y.y.y.y.y.y.y.y.y.y.y.y.y.y.y.y.y.y.y.y.y.y.y.y.y.y.y.y.y.y.y.y.y.y.y.y.y.r.y.y.y.t.y.y.y.y.y.y.",
"y.y.t.y.y.y.y.y.y.y.y.y.y.y.y.y.y.y.y.y.y.y.y.y.y.y.y.y.y.y.y.y.y.y.y.y.y.y.y.y.y.y.y.y.y.y.y.y.y.y.y.y.y.y.y.y.y.y.y.y.y.y.y.y.",
"y.y.y.y.y.y.y.y.y.y.y.y.y.y.y.y.y.y.y.y.y.y.y.y.y.y.y.y.y.y.y.y.y.y.y.y.y.y.y.y.y.y.y.y.y.y.y.y.y.y.y.y.y.y.y.y.y.y.y.r.y.y.y.y.",
"y.y.y.y.y.y.y.y.y.y.y.y.y.y.y.y.y.e.y.y.y.y.e.y.y.e.y.y.y.e.y.y.y.y.e.y.y.e.y.y.y.e.y.y.y.y.e.y.y.y.y.y.y.y.y.y.y.y.y.y.y.y.y.e.",
"y.y.y.y.y.y.y.t.y.y.y.y.y.t.y.y.y.y.y.y.y.y.y.y.y.y.y.y.y.y.y.y.y.y.y.y.y.y.y.y.y.y.y.y.y.y.y.y.y.y.t.y.y.t.y.y.y.y.y.y.y.y.y.y.",
"y.y.y.y.y.y.y.t.y.y.t.y.y.y.y.y.y.y.y.y.y.y.y.y.y.y.y.y.y.y.y.y.y.y.y.y.y.y.y.y.y.y.y.y.y.y.y.y.y.y.y.y.t.y.t.y.y.y.y.y.y.y.y.y.",
"y.y.y.y.t.t.y.y.y.y.y.y.y.y.y.y.y.y.y.y.y.y.y.y.y.y.y.y.y.y.y.y.y.y.y.y.y.y.y.y.y.y.y.y.y.y.y.y.y.y.y.y.y.t.t.t.y.y.y.y.y.y.y.y.",
"y.y.y.y.y.y.y.y.y.y.y.y.t.y.y.y.y.y.y.y.y.y.y.y.y.y.y.y.y.y.y.y.y.y.y.y.y.y.y.y.y.y.y.y.y.y.y.y.y.y.y.y.y.y.y.y.y.y.y.y.y.y.y.y.",
"y.y.y.y.y.y.y.y.5.5.6.4.3.3.3.6.3.4.4.4.4.4.4.4.4.4.4.4.4.4.4.4.4.4.4.4.4.4.4.4.4.4.4.4.4.4.4.3.3.5.4.6.5.3.3.3.y.y.y.y.y.y.y.y.",
"y.y.y.y.y.y.y.y.r.y.y.e.q.q.w.w.w.t.q.q.q.q.q.q.q.q.q.w.q.q.t.9.t.q.q.q.t.9.q.9.t.q.q.q.9.t.t.t.t.t.t.e.y.y.y.e.y.r.y.y.y.y.y.y.",
"y.y.y.y.t.y.y.y.y.y.t.<.<.,.-.-.<.-.<.<.<.<.<.<.<.<.<.,.<.<.<.<.<.<.<.<.<.<.,.<.<.<.<.<.-.<.<.<.-.<.<.<.w.e.y.y.y.y.y.y.y.y.y.y.",
"y.y.y.y.y.y.y.y.y.w.<.U 8 y y 2 5 5 5 5 5 5 5 5 5 5 5 5 5 5 5 5 5 5 5 5 5 5 5 5 5 5 5 5 5 5 5 5 8 t @ A o.e.r.w.y.y.y.y.y.y.t.y.",
"y.e.y.y.y.y.y.y.w.q.,.J = n < n ; z h h ; h h z z h ; z z h ; h h & z z ; h z ; h * z ; z h h z & n * , ' w.t.y.y.y.y.y.y.y.y.y.",
"y.y.y.y.y.y.y.y.e.q.-.t < g g g g j g g j g g g a g g a g g j g g g g g g a g g g a g g g g g g g g g 1 ' w.t.t.y.y.y.y.y.y.y.y.",
"y.y.y.y.y.y.y.y.y.w.=.y & g a a g g g j g g g l g g g g g g g g g g g g j g g g g g g j g j g g j a g 1 ..e.y.t.y.y.y.y.y.y.y.y.",
"y.y.y.y.y.y.y.y.e.7.,.4 z g j a g g g g g g j g g g g j l j g g g g j g g g g g j g g g g g g g g j j $ ..e.y.y.y.t.y.y.y.y.y.y.",
"y.y.y.y.y.e.y.y.r.q.-.y h d j g x g j a a a g g j j g z x g j j l x a d a X z l g a x g a g g d j a d 1 ' w.r.y.y.y.y.y.y.y.y.y.",
"y.y.y.y.y.y.y.y.y.q.,.7 h d j g g x g j j j g x j a j a l g a j l g j p f f z % g j a g x g a a d a x 1 ' t.y.r.y.y.y.y.y.t.y.y.",
"y.y.y.y.y.e.y.y.y.q.1.5 h a % z l l p j X g x p d d a c g a a d g l d p p d x g j g j g g X M a g l g , ' q.t.y.y.y.y.y.y.y.y.y.",
"y.y.y.y.e.y.y.y.r.t.,.t h g $ u 1 * & & n ; k g s & z % X h f h z % h s f a * * z g z & m < * * ; < * t { q.t.y.y.y.y.y.y.y.y.y.",
"y.y.y.y.y.y.y.y.y.t.,.D z z u 8 V V 7 y 6 7 * h r y = * x c $ , D D > ; : N D t > 1 @ 5 w 6 7 D 8 7 D Z { q.t.t.y.y.y.y.y.y.r.y.",
"y.y.y.y.y.y.y.y.r.t.>.t $ $ *.,.1.,.1.-.0.,.; < *.,.>.t . % , %.1.>.$., t %.,.1.8 %.,.-.2.2.<.<.,.1.:._ +.q.q.y.e.y.y.y.y.y.y.y.",
"y.y.y.y.y.y.y.y.r.t.1.t z 1 ,.8.q.q.7.9.w.<.1 : ,.9.8.} ; n D 1.q.2., 1 6 ,.q.2.C ,.8.w.9.9.e.t.e.w.8.` +.y.y.w.y.y.y.y.y.y.y.y.",
"y.y.y.y.y.y.y.y.y.t.>.t * : <.t.t.9.8.8.0.,.< ; ( t.t.2.u < / 0.q.,.N < A 8.q.q.C *.-.8.9.t.y.y.7.-.2.` | y.y.y.y.y.y.y.y.y.y.y.",
"y.y.y.y.y.y.y.y.y.y.,.t * , 0.e.8.U r > N * l & 5 <.t.9.y r <.0.<.3 < < w ;.e.8.t * < r q 2.t.0.8 1 , V X.w.e.y.y.y.y.y.y.y.y.y.",
"y.y.y.y.y.y.y.y.r.t.>.t * 7 q.t.2.8 * g x l p g : ,.t.w.&.U 9.t.=., v ; w 8.e.8.> x g * 8 <.q.<.< l z t [ w.y.r.r.y.t.y.y.y.y.y.",
"y.y.y.y.y.y.y.y.r.t.,.D * N q.t.<.8 n g l l j g z D 8.e.7.w.y.q.@.I % ; 0 <.t.8., g g ; 8 <.t.2.< g g , [ w.e.y.y.y.y.y.y.y.y.y.",
"y.y.y.y.y.y.y.y.r.t.,., * , q.y.2.A - < I # g l x = >.t.e.r.y.0.D . z m w 2.9.2.< j a ; 8 <.t.0.; j g > ] 9.e.r.y.y.e.y.y.y.y.y.",
"y.y.y.t.y.y.y.y.r.w.-.t * , q.y.t.  T K w F < x l * Z 2.y.y.q.1., l l ; J <.t.2.1 l g * V 1.t.0.: d g < ' 9.t.y.y.y.y.y.y.t.y.y.",
"y.y.y.y.y.y.y.y.r.t.,.r * , 0.y.t.q.8.;.-.>.= l x * t ,.q.y.q.S * g g < 6 <.t.0., g g * 7 1.t.0.- d g > [ t.t.y.y.y.y.y.y.y.y.y.",
"y.y.y.t.y.y.y.y.e.w.-.t * 1 0.t.q.0.0.8.;.=.< g g v y -.t.w.2.8 < j a v w 2.y.8.- g a s t 1.t.0.: g z > { t.y.y.y.y.y.y.y.y.y.r.",
"y.y.y.y.y.y.y.y.y.w.-.t * , 0.t.0.E U R e r z j l = i ;.t.t.;.~ ; j d O 5 2.e.8.- a d o t <.t.9.- j g > { y.y.y.y.y.y.y.y.y.y.y.",
"y.y.y.y.y.y.y.y.e.t.,.r * , 0.t.2.A r O o z g g l 1 ,.t.y.t.t.1.> l g O 9 8.w.2.> j d s 5 2.t.8.- g g < { e.y.y.y.y.y.y.y.y.y.y.",
"y.y.y.y.y.y.y.y.r.t.-.8 * N 0.t.2.8 & k g g a c z 5 8.t.t.q.y.0.B z p b 9 8.t.2.< j a s y <.t.0.- g g < { t.y.e.y.y.y.y.y.y.y.y.",
"y.y.y.y.y.y.y.y.t.t.-.t * N 0.t.<.B * x g k p g : ^ q.t.<.` t.9.>., & v w 8.t.0.1 g a O t 1.t.0.> g g < { t.e.r.y.y.y.y.y.y.y.y.",
"y.y.y.y.y.y.y.y.r.t.,.t * > 0.t.2.A , < = ; a h 5 ,.9.9.0 R 9.e.0.A v o w 0.t.2.1 j a ; t 1.t.0., g j < ..t.y.e.y.y.y.y.y.y.y.y.",
"y.y.y.y.y.y.y.y.r.e.,.r & > 8.y.8.Q W S ! J 1 - R 8.t.2.D , <.w.w.-.1 % A 8.t.0.N & g & D 1.q.8.- g j < { t.y.e.y.y.y.y.y.y.y.y.",
"y.y.y.y.y.y.y.y.y.t.-.y * , 9.y.t.q.8.0.2.>.u r -.t.q.} < < R 8.y.9.r : 0 8.t.2.N l g & 7 1.q.8.- j g < { t.e.y.y.y.y.y.y.e.y.y.",
"y.y.y.y.y.y.y.y.y.t.,.r ; r 9.y.y.w.t.9.t.8.7 D 8.q.1.6 P & 4 ,.w.7.O.r A 2.9.0.1 l a h 7 ,.w.8.- g j < { t.y.e.y.y.y.y.y.y.y.y.",
"y.y.y.y.y.y.y.y.t.q.,.8 ; - -.8.8.2.8.9.8.=.G #.=.,.%.G % z : ) -.-.*.r y :.1.:.> g a & , :.<.>.: j g < { t.y.e.y.y.y.y.y.y.y.y.",
"y.y.y.y.y.y.y.y.r.y.1.r z g < N < > : : : ; & z h z ; ; g g g & > > : v * < > > z g a g z ; < * z g g < { e.y.r.y.y.y.y.y.y.y.y.",
"y.y.y.y.y.y.y.y.y.t.<.5 z d x l g g f d a z g j d f g z g d d j j g z g z g l l z a a a g j j j g g j < { t.e.e.y.y.y.y.y.y.y.y.",
"y.y.y.t.y.y.y.y.y.q.,.r h a j l z a p d g g g g d d g g g a a d j j g g g g g g g a a a g a g g a g j < { t.y.e.y.y.y.y.y.y.y.y.",
"y.y.y.y.y.e.y.y.t.q.,.7 v a j l g g a p g z g j a a g g g g g g j j d a g g g g d d a f a a a g g j g < { t.e.y.y.y.y.y.y.y.y.y.",
"y.y.y.y.y.y.y.y.y.t.,.5 ; a g g g g d d l l l j a g z g g g z l g a j j j j g a g d a g a h a a g g g < { t.e.e.y.y.y.y.y.y.y.y.",
"y.y.y.y.y.e.y.y.r.t.1.7 v f g g g j j j g g j g a g g z j g l l g g j j j g a j j j g a h a j g a g j < { t.y.e.y.y.y.y.y.e.y.y.",
"y.y.y.y.y.e.y.y.y.t.1.r s a j g g g g g j g a a f g g a a d g l g a g g g j j d j g g g g g g j g g g < { t.e.y.y.y.y.y.y.e.y.y.",
"y.y.y.e.y.y.y.y.y.t.,.r v a g a g g g g g g a a a a a a d d j g g a h g g a d j g g g z h a g j g j g < { e.y.y.y.y.y.y.y.y.y.y.",
"y.y.y.y.y.y.y.y.y.9.1.4 h g j a d a g g a g a a a j a a d d a g a a a g a g d a d g a g g a a j a g j = X.e.e.y.y.y.y.y.y.y.r.y.",
"y.y.y.y.y.y.y.y.r.w.=.F & j g j g g a a a a g g a a g a g g a a a g a g a a g g g a a g a g a g j a j 1 ..e.e.t.t.y.y.y.y.y.y.e.",
"y.y.y.y.y.y.y.y.w.q.>.t z g g a g g g g j g g j g g g j g g g g j g g g g j g g g g g g g j g g g l l N { w.t.t.y.y.y.y.y.y.y.e.",
"y.y.y.y.y.y.y.y.e.q.1.Z > z $ < * * * * * * * * * * * * * * * * * * * * * * * * * * * * * * * * * z * , ' t.e.y.y.y.y.y.y.y.y.y.",
"y.y.y.y.y.y.y.y.y.t.,.  Z D J 6 8 V F F V F Z 8 F F V 8 F J J 8 F F V y V V F F F y V y y 8 J V D D 7 A o.y.e.w.y.y.y.y.y.y.y.e.",
"y.y.y.y.y.y.y.y.y.y.q.8.<.1.-.<.<.1.<.<.1.<.<.1.1.<.<.1.1.<.,.<.<.1.<.<.<.1.<.<.1.<.<.<.<.1.<.<.<.<.1.<.w.y.y.e.y.y.y.y.y.y.y.y.",
"y.e.y.y.t.y.y.y.r.y.y.t.t.q.w.w.t.q.t.q.t.t.q.q.t.t.t.t.t.t.t.q.t.q.t.q.t.q.q.t.t.q.t.q.q.t.q.t.t.t.t.e.y.y.y.y.y.y.y.y.y.y.y.y.",
"y.y.y.y.y.y.y.y.r.r.y.y.w.e.e.y.e.y.t.e.e.t.y.e.e.t.t.e.e.t.t.r.y.e.t.y.e.t.y.t.e.e.t.y.t.y.e.r.y.r.r.r.e.r.e.r.r.y.y.y.y.y.y.y.",
"y.y.y.y.y.y.y.y.y.y.y.y.t.y.y.y.y.y.y.y.y.y.y.y.y.y.y.y.y.y.y.y.y.y.y.y.y.y.y.y.y.y.y.y.y.y.y.y.y.y.y.y.y.t.y.t.y.y.y.y.y.y.y.y.",
"y.y.y.y.t.t.y.y.y.y.y.y.y.y.y.y.y.y.y.y.y.y.y.y.y.y.y.y.y.y.y.y.y.y.y.y.y.y.y.y.y.y.y.y.y.y.y.y.y.y.y.y.y.y.t.t.y.y.y.y.y.y.y.y.",
"y.y.y.y.y.y.t.y.y.y.y.y.y.t.y.y.y.y.y.y.y.y.y.y.y.y.y.y.y.y.y.y.y.y.y.y.y.y.y.y.y.y.y.y.y.y.y.y.y.y.y.t.t.y.y.y.y.y.y.y.y.y.y.y.",
"y.y.y.y.t.y.y.y.y.y.t.y.y.y.y.y.y.y.y.y.y.y.y.y.y.y.y.y.y.y.y.y.y.y.y.y.y.y.y.y.y.y.y.y.y.y.y.y.y.y.y.y.t.y.y.y.y.y.y.y.y.y.y.y.",
"y.y.y.y.y.y.y.y.y.y.y.y.y.y.y.y.y.y.y.y.y.y.y.y.y.y.y.y.y.y.y.y.y.y.y.y.y.y.y.y.y.y.y.y.y.y.y.y.y.y.y.y.y.y.y.y.y.y.y.y.y.y.y.y.",
"y.y.y.y.y.y.y.y.y.y.y.y.y.y.y.y.y.y.y.y.y.y.y.y.y.y.y.y.y.y.y.y.y.y.y.y.y.y.y.y.y.y.y.y.y.y.y.y.y.y.y.y.y.y.r.y.y.y.y.y.y.y.y.y.",
"y.y.y.y.y.y.y.y.y.y.y.y.y.y.y.y.y.y.y.y.y.y.y.y.y.y.y.y.y.y.y.y.y.y.y.y.y.y.y.y.y.y.y.y.y.y.y.y.y.y.e.y.y.y.y.y.y.y.y.y.y.y.y.y.",
"y.y.y.y.y.y.y.r.y.y.y.y.y.y.y.y.y.y.y.y.y.y.y.y.y.y.y.y.y.y.y.y.y.y.y.y.y.y.y.y.y.y.y.y.y.y.y.y.e.y.e.y.y.y.y.y.y.t.y.y.y.y.y.y."
};
