/* XPM */
static char *result[] = {
/* columns rows colors chars-per-pixel */
"64 64 236 2 ",
"   c #7D0902",
".  c #70160B",
"X  c #77210A",
"o  c #7C2B13",
"O  c #2D466E",
"+  c #425B7F",
"@  c #60554E",
"#  c #830701",
"$  c #830C03",
"%  c #8C0D03",
"&  c #8A0702",
"*  c #930B00",
"=  c #9D0A01",
"-  c #881607",
";  c #9C1203",
":  c #9A1A04",
">  c #9C1E09",
",  c #971708",
"<  c #811F19",
"1  c #A40C01",
"2  c #AC0C01",
"3  c #B40C00",
"4  c #BC0B00",
"5  c #AC1303",
"6  c #A61607",
"7  c #B31201",
"8  c #B61702",
"9  c #A51D11",
"0  c #9B210D",
"q  c #942802",
"w  c #9B3C00",
"e  c #963600",
"r  c #8B291D",
"t  c #892619",
"y  c #9C2413",
"u  c #9F2A16",
"i  c #972818",
"p  c #9D311C",
"a  c #8A2200",
"s  c #A52704",
"d  c #A52717",
"f  c #B62915",
"g  c #A3351B",
"h  c #B8371A",
"j  c #BD2E0A",
"k  c #8C332C",
"l  c #9C3427",
"z  c #94362C",
"x  c #A42D21",
"c  c #A13323",
"v  c #A53B2B",
"b  c #A83A27",
"n  c #B63B27",
"m  c #A43E33",
"M  c #B32F21",
"N  c #C30B00",
"B  c #CD0A00",
"V  c #D40A00",
"C  c #DB0B01",
"Z  c #CC1403",
"A  c #CE1900",
"S  c #C71907",
"D  c #DC1B00",
"F  c #D61604",
"G  c #E30A00",
"H  c #EB0A00",
"J  c #F30A00",
"K  c #F90A00",
"L  c #E31B01",
"P  c #E51904",
"I  c #F9180A",
"U  c #C72607",
"Y  c #D52306",
"T  c #D92409",
"R  c #C8380A",
"E  c #C42E16",
"W  c #CA2B15",
"Q  c #C92514",
"!  c #D82514",
"~  c #C83318",
"^  c #D5341B",
"/  c #E32000",
"(  c #EA2304",
")  c #F32403",
"_  c #E72914",
"`  c #EA381C",
"'  c #F33A17",
"]  c #F82615",
"[  c #D83C23",
"{  c #CB3C25",
"}  c #E43D25",
"|  c #FA3924",
" . c #954400",
".. c #9B4900",
"X. c #8B4619",
"o. c #914C16",
"O. c #945111",
"+. c #A8471B",
"@. c #B84819",
"#. c #A5521C",
"$. c #A14600",
"%. c #9F611F",
"&. c #B76A18",
"*. c #954325",
"=. c #965827",
"-. c #94473B",
";. c #995939",
":. c #8F4B2A",
">. c #A5422E",
",. c #AA4528",
"<. c #BB412C",
"1. c #B74629",
"2. c #B95524",
"3. c #A94539",
"4. c #A84739",
"5. c #B64B38",
"6. c #A75D2D",
"7. c #A76B2A",
"8. c #A66C33",
"9. c #B57C3C",
"0. c #BB773E",
"q. c #B5692E",
"w. c #9D683A",
"e. c #C55518",
"r. c #D04C13",
"t. c #E14219",
"y. c #EC5416",
"u. c #CA6714",
"i. c #D87D18",
"p. c #F16514",
"a. c #CA4828",
"s. c #DC4227",
"d. c #CC523E",
"f. c #DC563C",
"g. c #D55529",
"h. c #F84826",
"j. c #E3563A",
"k. c #EE4E2E",
"l. c #CE7133",
"z. c #EC6021",
"x. c #9A4942",
"c. c #9B5343",
"v. c #AC4E40",
"b. c #A64B42",
"n. c #AE5344",
"m. c #A55543",
"M. c #B35445",
"N. c #9E7656",
"B. c #99694D",
"V. c #A87A5A",
"C. c #C85540",
"Z. c #DB5943",
"A. c #E15942",
"S. c #C4634A",
"D. c #D4704D",
"F. c #EA6141",
"G. c #F16242",
"H. c #B9823E",
"J. c #B78430",
"K. c #DB8809",
"L. c #DA8B18",
"P. c #DB9517",
"I. c #C99B1C",
"U. c #E4950B",
"Y. c #EF9A0B",
"T. c #F9A807",
"R. c #FCBB0F",
"E. c #E4A417",
"W. c #E8B41F",
"Q. c #DA9723",
"!. c #CF933F",
"~. c #D89833",
"^. c #D4882F",
"/. c #DBA226",
"(. c #DEA83B",
"). c #E7AA27",
"_. c #FFBC3A",
"`. c #FCB835",
"'. c #EEAD2F",
"]. c #E1883F",
"[. c #FCCA16",
"{. c #DEC129",
"}. c #FFC938",
"|. c #FBD639",
" X c #E7C82A",
".X c #B78D49",
"XX c #B58745",
"oX c #BB934B",
"OX c #AD8552",
"+X c #B59A7B",
"@X c #AF8B62",
"#X c #B5AA73",
"$X c #948761",
"%X c #C79447",
"&X c #D79E48",
"*X c #C2914C",
"=X c #D9A64A",
"-X c #D9B558",
";X c #CFAE51",
":X c #E1B449",
">X c #E4B955",
",X c #FFBD40",
"<X c #D9906C",
"1X c #C5A877",
"2X c #D1B375",
"3X c #E5B46E",
"4X c #E8C149",
"5X c #FCCA4B",
"6X c #FCC844",
"7X c #FED84B",
"8X c #E7C458",
"9X c #FFCE51",
"0X c #FEDA55",
"qX c #FFE35D",
"wX c #D5D27B",
"eX c #D6CB6F",
"rX c #FDDE65",
"tX c #E4D170",
"yX c #FEE362",
"uX c #FAE76D",
"iX c #F7E874",
"pX c #FFF37D",
"aX c #023788",
"sX c #0F408D",
"dX c #CDB582",
"fX c #C0A886",
"gX c #E1B28A",
"hX c #D9C288",
"jX c #E9D899",
"kX c #E3CF8C",
"lX c #FFF580",
"zX c #EDE09D",
"xX c #DBCAA2",
"cX c #E6D9AD",
"vX c #F4E8A4",
"bX c None",
/* pixels */
"bXbXbXbXbXbXbXbXbXbXbXbXbXbXbXbXbXbXbXbXbXbXbXbXbXbXbXbXbXbXbXbXbXbXbXbXbXbXbXbXbXbXbXbXbXbXbXbXbXbXbXbXbXbXbXbXbXbXbXbXbXbXbXbX",
"bXbXbXbXbXbXbXbXbXbXbXbXbXbXbXbXbXbXbXbXbXbXbXbXbXbXbXbXbXbXbXbXbXbXbXbXbXbXbXbXbXbXbXbXbXbXbXbXbXbXbXbXbXbXbXbXbXbXbXbXbXbXbXbX",
"bXbXbXbXbXbXbXbXbXbXbXbXbXbXbXbXbXbXbXbXbXbXbXbXbXbXbXbXbXbXbXbXbXbXbXbXbXbXbXbXbXbXbXbXbXbXbXbXbXbXbXbXbXbXbXbXbXbXbXbXbXbXbXbX",
"bXbXbXbXbXbXbXbXbXbXbXbXbXbXbXbXbXbXbXbXbXbXbXbXbXbXbXbXbXbXbXbXbXbXbXbXbXbXbXbXbXbXbXbXbXbXbXbXbXbXbXbXbXbXbXbXbXbXbXbXbXbXbXbX",
"bXbXbXbXbXbXbXbXbXbXbXbXbXbXbXbXbXbXbXbXbXbXbXbXbXbXbXbXbXbXbXbXbXbXbXbXbXbXbXbXbXbXbXbXbXbXbXbXbXbXbXbXbXbXbXbXbXbXbXbXbXbXbXbX",
"bXbXbXbXbXbXbXbXbXbXbXbXbXbXbXbXbXbXbXbXbXbXbXbXbXbXbXbXbXbXbXbXbXbXbXbXbXbXbXbXbXbXbXbXbXbXbXbXbXbXbXbXbXbXbXbXbXbXbXbXbXbXbXbX",
"bXbXbXbXbXbXbXbXbXbXbXbXbXbXbXbXbXbXbXbXbXbXbXbXbXbXbXbXbXbXbXbXbXbXbXbXbXbXbXbXbXbXbXbXbXbXbXbXbXbXbXbXbXbXbXbXbXbXbXbXbXbXbXbX",
"bXbXbXbXbXbXbXbXbXbXbXbXbXbXbXbXbXbXbXbXbXbXbXbXbXbXbXbXbXbXbXbXbXbXbXbXbXbXbXbXbXbXbXbXbXbXbXbXbXbXbXbXbXbXbXbXbXbXbXbXbXbXbXbX",
"bXbXbXbXbXbXbXbXbXbXbXbXbXbXbXbXbXbXbXbXbXbXbXbXbXbXbXbXbXbXbXbXbXbXbXbXbXbXbXbXbXbXbXbXbXbXbXbXbXbXbXbXbXbXbXbXbXbXbXbXbXbXbXbX",
"bXbXbXbXbXbXbXbXbXbXbXbXbXbXbXbXbXbXbXbXbXbXbXbXbXbXbXbXbXbXbXbXbXbXbXbXbXbXbXbXbXbXbXbXbXbXbXbXbXbXbXbXbXbXbXbXbXbXbXbXbXbXbXbX",
"bXbXbXbXbXbXbXbXbXbXbXbXbXbXbXbXbXbXbXbXbXbXbXbXbXbXbXbXZ.A.j.gXgXA.A.Z.bXbXbXbXbXbXbXbXbXbXbXbXbXbXbXbXbXbXbXbXbXbXbXbXbXbXbXbX",
"bXbXbXbXbXbXbXbXbXbXbXbXbXbXbXbXbXbXbXbXbXbXbXbXbXbXZ.Z.s.} ^ a.g.{ [ k.f.Z.bXbXbXbXbXbXbXbXbXbXbXbXbXbXbXbXbXbXbXbXbXbXbXbXbXbX",
"bXbXbXbXbXbXbXbXbXbXbXbXbXbXbXbXbXbXbXbXbXbXbXbXbX<Xf.s.@.9.oXoX*XoXV.e.` f.<XbXbXbXbXbXbXbXbXbXbXbXbXbXbXbXbXbXbXbXbXbXbXbXbXbX",
"bXbXbXbXbXbXbXbXbXbXbXbXbXbXbXbXbXbXbXbXbXbXbXbX<XgX[ 2..X.X.XtXtXoX.X.Xq.^ gX<XbXbXbXbXbXbXbXbXbXbXbXbXbXbXbXbXbXbXbXbXbXbXbXbX",
"bXbXbXbXbXbXbXbXbXbXbXbXbXbXbXbXbXbXbXbXbXbXbXC.Z.a.2.XXXX.XtXpXlXtX.XXXXX6.s.D.C.bXbXbXbXbXbXbXbXbXbXbXbXbXbXbXbXbXbXbXbXbXbXbX",
"bXbXbXbXbXbXbXbXbXbXbXbXbXbXbXbXbXbXbXbXbXbXbXd.{ h H..X-XiXpXpXlXlXiX-XoXXX@.{ d.bXbXbXbXbXbXbXbXbXbXbXbXbXbXbXbXbXbXbXbXbXbXbX",
"bXbXbXbXbXbXbXbXbXbXbXbXbXbXbXbXbXbXbXbXbXbXC.a.^ ^.yXuXiX#XeXpXlXeXeXiXuXyX(.^ a.C.bXbXbXbXbXbXbXbXbXbXbXbXbXbXbXbXbXbXbXbXbXbX",
"bXbXbXbXbXbXbXbXbXbXbXbXbXbXbXbXbXbXbXbXbXbXC.{ U :XyXuX#X@ tXpXlXwX$X$XuXyX7XE { C.bXbXbXbXbXbXbXbXbXbXbXbXbXbXbXbXbXbXbXbXbXbX",
"bXbXbXbXbXbXbXbXbXbXbXbXbXbXbXbXbXbXbXbXbXbXD.{ U 7XyX;X+ aXwXpXlXwXsXO ;XyX0XR { D.bXbXbXbXbXbXbXbXbXbXbXbXbXbXbXbXbXbXbXbXbXbX",
"bXbXbXbXbXbXbXbXbXbXbXbXbXbXbXbXbXbXbXbXbXbX1X~ j 6X0XqXeX#XpXpXpXpX#XeXyXqX7XU { <XbXbXbXbXbXbXbXbXbXbXbXbXbXbXbXbXbXbXbXbXbXbX",
"bXbXbXbXbXbXbXbXbXbXbXbXbXbXbXbXbXbXbXbXbXS.C.~ Y (.6X6X9XyXpXtXiXiXrX5X5X6X}.S E C.S.bXbXbXbXbXbXbXbXbXbXbXbXbXbXbXbXbXbXbXbXbX",
"bXbXbXbXbXbXbXbXbXbXbXbXbXbXbXbXbXbXbXbXbXC.<.~ T u._._._.5XqXrXrXuX5X}._._.i.Y ~ n M.bXbXbXbXbXbXbXbXbXbXbXbXbXbXbXbXbXbXbXbXbX",
"bXbXbXbXbXbXbXbXbXbXbXbXbXbXbXbXbXbXbXbXbXM.<.~ Y U '.`._.6X5X].&X9X6X_.`.'.U T ~ <.5.bXbXbXbXbXbXbXbXbXbXbXbXbXbXbXbXbXbXbXbXbX",
"bXbXbXbXbXbXbXbXbXbXbXbXbXbXbXbXbXbXbXbXbX5.n E A L R `._.}.7X6X6X9X}._.`.r.T Y E a.bXbXbXbXbXbXbXbXbXbXbXbXbXbXbXbXbXbXbXbXbXbX",
"bXbXbXbXbXbXbXbXbXbXbXbXbXbXbXbXbXbXbXbXbXbXn E l.` ( R ).}.}.|.}.}.}.W.r./ t.l.E n bXbXbXbXbXbXbXbXbXbXbXbXbXbXbXbXbXbXbXbXbXbX",
"bXbXbXbXbXbXbXbXbXbXbXbXbXbXbXbXbXbXbXbXbXbXn h kX3X/ ) Y e.U.).).P.u.Y I ( 3XkXf n bXbXbXbXbXbXbXbXbXbXbXbXbXbXbXbXbXbXbXbXbXbX",
"bXbXbXbXbXbXbXbXbXbXbXbXbXbXbXbXbXbXbXbXbXbXn f g.g.L ) P L A T T F L L ) / y.g.f b m bXbXbXbXbXbXbXbXbXbXbXbXbXbXbXbXbXbXbXbXbX",
"bXbXbXbXbXbXbXbXbXbXbXbXbXbXbXbXbXbXbXbXbXk l d 8 A D Z _ h.' P P ' ' _ Z D A S f p k bXbXbXbXbXbXbXbXbXbXbXbXbXbXbXbXbXbXbXbXbX",
"bXbXbXbXbXbXbXbXbXbXbXbXbXbXbXbXbXbXbXbXbX-.r , 6 7 7 D h.p.k.( ' h.p.h.D 3 8 1 , r :.bXbXbXbXbXbXbXbXbXbXbXbXbXbXbXbXbXbXbXbXbX",
"bXbXbXbXbXbXbXbXbXbXbXbXbXbXbXbXbXbXbXbXbX8.t , 5 8 S D h.k.' L P h.k.' D A 7 5 ; t w.bXbXbXbXbXbXbXbXbXbXbXbXbXbXbXbXbXbXbXbXbX",
"bXbXbXbXbXbXbXbXbXbXbXbXbXbXbXbXbXbX-X&XH.7.t - 8 5 A D D ( ( E R _ L L D A 7 7 % t 7.H.=X-XbXbXbXbXbXbXbXbXbXbXbXbXbXbXbXbXbXbX",
"bXbXbXbXbXbXbXbXbXbXbXbXbXbXbXbX>X&XXX*X=.%.o $ 5 5 A F L R {./.L.{.r.L D A 7 5 $ t %.*.*XXX%X-XbXbXbXbXbXbXbXbXbXbXbXbXbXbXbXbX",
"bXbXbXbXbXbXbXbXbXbXbXbXbXbXbXbX&X9.H.8.X.O.o   6 1 S A A @.L.^ g.^.{.j A A 5 ;   X O.:.8.H.H.;XbXbXbXbXbXbXbXbXbXbXbXbXbXbXbXbX",
"bXbXbXbXbXbXbXbXbXbXbXbXbXbXbX8X8X%XH.=.X.o..   & # = 6 8 r.L.u.p.h [.#.6 = & &   . o.X.=.9.%X8X8XbXbXbXbXbXbXbXbXbXbXbXbXbXbXbX",
"bXbXbXbXbXbXbXbXbXbXbXbXbXbXbX>X:X4X8XH.7.X.X - % q q s R j j s j @.I.&.U X s : $ X r 8.%X8X4X:X>XbXbXbXbXbXbXbXbXbXbXbXbXbXbXbX",
"bXbXbXbXbXbXbXbXbXbXbXbXbXbXbX>X(./.E.W. X2X3X&X!.l.q.2.e.@.l.2.^.&.J.J.2.7.l.!.;X3XeX XW.E./.(.:XbXbXbXbXbXbXbXbXbXbXbXbXbXbXbX",
"bXbXbXbXbXbXbXbXbXbXbXbXbXbXbX>X(./.E.E.E.+XcX#XvXjX1XwX=X|.|.|.|.|.|.(.2X1XhXvXdXxXfXP.E.E.Q.(.:XbXbXbXbXbXbXbXbXbXbXbXbXbXbXbX",
"bXbXbXbXbXbXbXbXbXbXbXbXbXbXbX=X(.Q.P.U.U.+XcX1XvXvXdXB.P.[.[.[.[.[.[.E.N.2XvXvX1XxXfXP.U.P.Q.(.=XbXbXbXbXbXbXbXbXbXbXbXbXbXbXbX",
"bXbXbXbXbXbXbXbXbXbXbXbXbXbXbX&X~.Q.P.U.U.N.+XB.xXgXdXjX@XT.R.R.[.[.E.@XzXdXhXjXB.+XN.U.U.P.Q.~.=XbXbXbXbXbXbXbXbXbXbXbXbXbXbXbX",
"bXbXbXbXbXbXbXbXbXbXbXbXbXbXbX&X~.P.K.K.K.g N B h V.@X8.0.U.T.T.T.T.T.H.w.V.V.n V B g K.U.K.L.~.&XbXbXbXbXbXbXbXbXbXbXbXbXbXbXbX",
"bXbXbXbXbXbXbXbXbXbXbXbXbXbXbX.X^.L.K.K.#.7 B V C C f &.i.U.T.T.T.T.Y.K.u.h Z G F V N +.K.L.L.^.*XbXbXbXbXbXbXbXbXbXbXbXbXbXbXbX",
"bXbXbXbXbXbXbXbXbXbXbXbXbXbXbXm.c.6.#.p 1 4 W [ C G G J P Y W ~ R W F F J J G G ^ ^ N 3 g ,.6.m.v.bXbXbXbXbXbXbXbXbXbXbXbXbXbXbX",
"bXbXbXbXbXbXbXbXbXbXbXbXbXbXbXbX-.x > 6 3 3 Q t.! G G H J J I h.| I K K J H H ! ` ^ N 3 5 9 x m bXbXbXbXbXbXbXbXbXbXbXbXbXbXbXbX",
"bXbXbXbXbXbXbXbXbXbXbXbXbXbXbXbX4.x 9 6 2 3 S ! V C G H J J ] h.h.] K J H G G C ! Q N 3 8 9 x m bXbXbXbXbXbXbXbXbXbXbXbXbXbXbXbX",
"bXbXbXbXbXbXbXbXbXbXbXbXbXbXbXbXb.c c n 2 3 4 B B V C G H H J | h.K H H H G C V B 4 4 2 f n v b.bXbXbXbXbXbXbXbXbXbXbXbXbXbXbXbX",
"bXbXbXbXbXbXbXbXbXbXbXbXbXbXbXbXb.m 5.h f 2 3 N B B C _ G H H H J J H H _ C V V Z 4 3 f M 5.5.v.bXbXbXbXbXbXbXbXbXbXbXbXbXbXbXbX",
"bXbXbXbXbXbXbXbXbXbXbXbXbXbXbXbXb.v >.@.n 3 3 N N ! [ G.P G G H G H G ] G.! F B N 4 3 f n 1.>.b.bXbXbXbXbXbXbXbXbXbXbXbXbXbXbXbX",
"bXbXbXbXbXbXbXbXbXbXbXbXbXbXbXbXb.m 5.<.d 1 3 7 N A.} y.A.} C G G C j.} y.j.s.N 4 3 3 5 5.5.3.b.bXbXbXbXbXbXbXbXbXbXbXbXbXbXbXbX",
"bXbXbXbXbXbXbXbXbXbXbXbXbXbXbXbXbXb.l d 9 1 2 4 4 Q [ y.} ! C C C C ` } y.s.Z N 4 3 1 6 d c 4.bXbXbXbXbXbXbXbXbXbXbXbXbXbXbXbXbX",
"bXbXbXbXbXbXbXbXbXbXbXbXbXbXbXbXbXx.z y 9 1 2 2 3 Q f.a.A.V V V V C ! A.s.f.S 4 3 3 1 9 d z x.bXbXbXbXbXbXbXbXbXbXbXbXbXbXbXbXbX",
"bXbXbXbXbXbXbXbXbXbXbXbXbXbXbXbXbXc.:.r - , 1 2 3 3 N N Z B B B B B B S N N 4 3 2 1 ; , r m c.bXbXbXbXbXbXbXbXbXbXbXbXbXbXbXbXbX",
"bXbXbXbXbXbXbXbXbXbXbXbXbXbXbXbXbXbX;.:.t % % * = 1 2 3 4 4 4 N N N 4 4 3 2 1 = * * % t *.c.bXbXbXbXbXbXbXbXbXbXbXbXbXbXbXbXbXbX",
"bXbXbXbXbXbXbXbXbXbXbXbXbXbXbXbXbXbXc.=.X.- p , * : ; = = 1 2 1 1 1 1 1 1 ; : * y u - o.=.c.bXbXbXbXbXbXbXbXbXbXbXbXbXbXbXbXbXbX",
"bXbXbXbXbXbXbXbXbXbXbXbXbXbXbXbXbXbXc.w.=.*.,.+.y  . .w ..1 1 n f 1 5 w w w e d ,.,.l =.;.c.bXbXbXbXbXbXbXbXbXbXbXbXbXbXbXbXbXbX",
"bXbXbXbXbXbXbXbXbXbXbXbXbXbXbXbXbXbXbXx.:.t >.b - e e  .w q a.e.1.n w e .. .q > +.>.t :.x.bXbXbXbXbXbXbXbXbXbXbXbXbXbXbXbXbXbXbX",
"bXbXbXbXbXbXbXbXbXbXbXbXbXbXbXbXbXbXbXx.k r r r a  .e  . .q d 1.<.6 e w  .e  .- t r r z x.bXbXbXbXbXbXbXbXbXbXbXbXbXbXbXbXbXbXbX",
"bXbXbXbXbXbXbXbXbXbXbXbXbXbXbXbXbXbXbXbXb.k o $ $ - a - q & , 0 d ; * q - - - -   t k 4.bXbXbXbXbXbXbXbXbXbXbXbXbXbXbXbXbXbXbXbX",
"bXbXbXbXbXbXbXbXbXbXbXbXbXbXbXbXbXbXbXbXn.4.p i - $       # # # # #     #   $ - i c 4.n.bXbXbXbXbXbXbXbXbXbXbXbXbXbXbXbXbXbXbXbX",
"bXbXbXbXbXbXbXbXbXbXbXbXbXbXbXbXbXbXbXbXbXn.>.l y 0 > : ; ; : ; : : ; : : > 0 y l v n.bXbXbXbXbXbXbXbXbXbXbXbXbXbXbXbXbXbXbXbXbX",
"bXbXbXbXbXbXbXbXbXbXbXbXbXbXbXbXbXbXbXbXbXn.n.v p p y 0 0 0 > , > > > > 0 y p p >.n.n.bXbXbXbXbXbXbXbXbXbXbXbXbXbXbXbXbXbXbXbXbX",
"bXbXbXbXbXbXbXbXbXbXbXbXbXbXbXbXbXbXbXbXbXbXM.n.4.v p p g u u u u u u g p c v 4.M.M.bXbXbXbXbXbXbXbXbXbXbXbXbXbXbXbXbXbXbXbXbXbX",
"bXbXbXbXbXbXbXbXbXbXbXbXbXbXbXbXbXbXbXbXbXbXbXbXn.n.4.>.v v b b c b v >.>.3.5.M.bXbXbXbXbXbXbXbXbXbXbXbXbXbXbXbXbXbXbXbXbXbXbXbX",
"bXbXbXbXbXbXbXbXbXbXbXbXbXbXbXbXbXbXbXbXbXbXbXbXbXbXM.M.M.v.M.v.v.v.n.n.n.M.bXbXbXbXbXbXbXbXbXbXbXbXbXbXbXbXbXbXbXbXbXbXbXbXbXbX",
"bXbXbXbXbXbXbXbXbXbXbXbXbXbXbXbXbXbXbXbXbXbXbXbXbXbXbXbXbXbXbXbXbXbXbXbXbXbXbXbXbXbXbXbXbXbXbXbXbXbXbXbXbXbXbXbXbXbXbXbXbXbXbXbX"
};
