/* XPM */
static char *_2271_5567da8dc385fb1cd1a343ef14cd37a278b327393926050f5ffa1e12055a46ef[] = {
/* columns rows colors chars-per-pixel */
"64 64 241 2 ",
"   c #150C03",
".  c #1B0C01",
"X  c #130600",
"o  c #1E1104",
"O  c #1A150F",
"+  c #0F0300",
"@  c #25160A",
"#  c #251B0C",
"$  c #2B1C0B",
"%  c #231404",
"&  c #311C0C",
"*  c #2A1D11",
"=  c #251D15",
"-  c #2C2214",
";  c #2C2319",
":  c #252211",
">  c #332415",
",  c #33261C",
"<  c #352A1C",
"1  c #3A2B1B",
"2  c #3A2716",
"3  c #3D311F",
"4  c #33240D",
"5  c #352C22",
"6  c #3A2D22",
"7  c #392D2A",
"8  c #3D3225",
"9  c #3C342B",
"0  c #393428",
"q  c #3F3B33",
"w  c #262223",
"e  c #46331C",
"r  c #433424",
"t  c #42352A",
"y  c #44392C",
"u  c #4B3C2C",
"i  c #4B3926",
"p  c #523E2B",
"a  c #453C32",
"s  c #4B3D33",
"d  c #473D38",
"f  c #503F37",
"g  c #4A402E",
"h  c #54422D",
"j  c #5A442F",
"k  c #454037",
"l  c #4D4235",
"z  c #4D443B",
"x  c #49443C",
"c  c #534434",
"v  c #5C4B34",
"b  c #53453B",
"n  c #544A3C",
"m  c #5B4C3C",
"M  c #564834",
"N  c #5D513D",
"B  c #634E3C",
"V  c #644B36",
"C  c #63523D",
"Z  c #6B593E",
"A  c #69533B",
"S  c #775A37",
"D  c #7A623E",
"F  c #4A4742",
"G  c #4E4943",
"H  c #544C43",
"J  c #5B4E43",
"K  c #524D49",
"L  c #5C5244",
"P  c #55514B",
"I  c #5C544A",
"U  c #5D594D",
"Y  c #575043",
"T  c #5B5652",
"R  c #5E5A52",
"E  c #624F41",
"W  c #635444",
"Q  c #6A5544",
"!  c #655945",
"~  c #6B5B44",
"^  c #62564B",
"/  c #645A4C",
"(  c #6B5C4C",
")  c #68564B",
"_  c #735C44",
"`  c #725D4B",
"'  c #645C53",
"]  c #6B5E53",
"[  c #635E59",
"{  c #695F58",
"}  c #665750",
"|  c #715E52",
" . c #715F5B",
".. c #6D614E",
"X. c #6A6048",
"o. c #74634D",
"O. c #7B654D",
"+. c #7C6A4D",
"@. c #776347",
"#. c #656156",
"$. c #6C6255",
"%. c #65615A",
"&. c #6C645B",
"*. c #6E695C",
"=. c #6F6856",
"-. c #736454",
";. c #7A6654",
":. c #756955",
">. c #7B6B55",
",. c #72655A",
"<. c #78665B",
"1. c #746A5C",
"2. c #7B6C5C",
"3. c #7D715D",
"4. c #7F7157",
"5. c #6D6661",
"6. c #6E6963",
"7. c #746C63",
"8. c #7A6E63",
"9. c #746E69",
"0. c #756B65",
"q. c #767164",
"w. c #7C7264",
"e. c #76736B",
"r. c #7C746B",
"t. c #7F7A6C",
"y. c #7E7862",
"u. c #7C7671",
"i. c #7D7A72",
"p. c #836A47",
"a. c #826D54",
"s. c #836D5C",
"d. c #827155",
"f. c #8B7354",
"g. c #83725D",
"h. c #8A735B",
"j. c #8B785E",
"k. c #927A5C",
"l. c #816E62",
"z. c #816E68",
"x. c #837464",
"c. c #8B7664",
"v. c #857965",
"b. c #8B7A64",
"n. c #82766A",
"m. c #89776A",
"M. c #847A6C",
"N. c #8B7C6C",
"B. c #937C63",
"V. c #927D6B",
"C. c #9A7F63",
"Z. c #847C72",
"A. c #8A7E72",
"S. c #867C77",
"D. c #917F70",
"F. c #9D825E",
"G. c #8C816E",
"H. c #948166",
"J. c #9A8366",
"K. c #93836C",
"L. c #9A846A",
"P. c #9B896B",
"I. c #858075",
"U. c #8C8274",
"Y. c #8C847A",
"T. c #8D897C",
"R. c #868279",
"E. c #938474",
"W. c #9B8571",
"Q. c #948976",
"!. c #9B8B73",
"~. c #93867A",
"^. c #948A7C",
"/. c #9B8C7C",
"(. c #99877C",
"). c #9D917C",
"_. c #A38A6B",
"`. c #A28C74",
"'. c #A18D7C",
"]. c #AB8E73",
"[. c #A3937B",
"{. c #A9957D",
"}. c #A6957A",
"|. c #B3997B",
" X c #8E8A83",
".X c #868580",
"XX c #948B82",
"oX c #9B8D83",
"OX c #948B88",
"+X c #9C9284",
"@X c #96938B",
"#X c #9D948A",
"$X c #989486",
"%X c #9E9892",
"&X c #A28F85",
"*X c #A29384",
"=X c #A4968B",
"-X c #A49A8C",
";X c #AB9C8D",
":X c #A99A84",
">X c #B49A82",
",X c #B59E88",
"<X c #A49B92",
"1X c #AB9E92",
"2X c #B09E92",
"3X c #AEA18F",
"4X c #B7A38B",
"5X c #ACA293",
"6X c #ABA49A",
"7X c #A7A399",
"8X c #B2A495",
"9X c #BDAB94",
"0X c #B2A69B",
"qX c #B3AA9D",
"wX c #BBAD9D",
"eX c #B5A897",
"rX c #BBB09E",
"tX c #B4ACA3",
"yX c #BBADA2",
"uX c #B2AEA9",
"iX c #BDB2A3",
"pX c #BBB2A7",
"aX c #AEAAA4",
"sX c #C2AA89",
"dX c #C1AB97",
"fX c #C4B29B",
"gX c #C7B298",
"hX c #D1B89B",
"jX c #C3B3A3",
"kX c #C5B9A7",
"lX c #C3B6A9",
"zX c #CBBBAD",
"xX c #C7BAAB",
"cX c #C4BBB2",
"vX c #C7BEB3",
"bX c #D3BEAD",
"nX c #C9C1B6",
"mX c #D4C4B3",
"MX c #E6CAA5",
"NX c #E1D1C2",
"BX c #D9CFC3",
/* pixels */
"} L { ,.^ ^ z H A.r.$.^ (.7.8.2...;Xg.-.2.2.,.2.r.r. XS.[ P w uX XS.t.r.*.U 7X@XaXR.: i.*.q I.U T.$Xe.#.u.F T aXOXT T F F T [ R ",
",.$.<.0.z / $.J z.Z.w.z n.,.2.^ <.N.2.-.~ /.8.M.8.] r.r.R T F u.q.i.6.q.q.I.%X%X@XR.k 9.[ R e.R.T.T.R.U #.&.5.7X9.F %.P F K T [ ",
"Z.' Z.0.k #.i.[ 7.r.n.z 1.1.8.] :.$.:.:.W ;Xx.Y.7.^ 5.0.R K i.G &.7.1.r.[ %XR.uXe.e.%.[ %.6.&.7XT.R.t.k R r.0..X5.K u.[ T K T 6.",
"XX= 0.0.[ *.t.6.$.' &.1.5.$.w.^., ! ( $.2.$X' U.R.9 P r.R R u.i.&.9.XXXXP 6.9.7X%.[ R F #.K k T.I.t.k   a 0.K 5  Xi.e.S.u.u.%.u.",
"Z.F 6.6.u.R.e.e.*.&.%.*.&.w.r.M.N N.( 2.1.I.I.&.Y.a %.*.R #.*.*.' 5.7.S.#.#.@X X{ [ P d 5.P P I.q.t.J ; a { / a t.r.n.S.u.<X X6.",
"5.5.R K %. X%.i.e.I.6.6.&.&.*.7.M./.1.$./ q. XR R.' q.&.#.&.*.#.] ' 7.r.*.&.aXu.T 6.[ G P R R S.i.q.*.z H 7.I &.$.0.M.7.0.<X9.[ ",
"[ K T O F e.R @XT.7XR.7.H H ^ &.+XM.U./ 0 &.S.9.u. X%.R.q.q.t.=.Y.7 A.OXr.0.cX' H 9.&.' K &.%.R.7Xq.#.A.8.] b U.0.#XZ.&.a I   K ",
"[ T e..Xu.K [  X@X7X#.1.z I &.&.Z.2.' Y G e.e.9. X@Xe.6.R.t.T.Y.XX0.7.Y.n.*.K { r.R.t.q.0.q.*.XX$X*.N.Z.r.l 2.1.1.G.Y.1.' XX9.5.",
"6.9.S.vXi.x #.r.%X@X5.M.K I 0.r.7.,.H H } [ R [ i.u.e.U Y.I.I.=X^.+XL M.I.,.8 t.T.~.Y.t.#XT.t.w.~.8.S.oXb b ~.1.1.t.5X1.Y.#Xe.Z.",
"@Xi.S.6X&.R R #.@XI.XX1XI b A.A.]  .&.{ T x a F K 9 6.H A.w.r.$X(.N.# U.M.G.2.$XQ.Y.U.I.nX7XI.5 M.#XA.1X+ ,.+Xm.=.U.vXY.-X0.= XX",
"OX&.r.R.%.&., tXY.^.6X X} y I tXb ,.#Xr.= 6.G 0.R F P R *.' ^.~.:.! m 3.=.n M.Q.^.m =.3X-X#.' n aXz.Z.n.^ 1.<X,.,.w.J I q.q.H U.",
"t.5.$.r.r.t.a qXM.$X6Xn.} s H 2X/ { 8.XX. &.P 5.%.P G H b 7.Z.$.2.N 2.-.:.M G.v.5XL $.q.Q.U k U XX{ { 1.7.,.Z. .7.U.n &.*.r.$.r.",
",.<.b M.$XU.1.y.8.^.-X1.} ^ m ~.A./ 6 -X* z n ^ &./ q l 0 ^.I t M.X.G.:.Z 3.3...rXt.w.9 y.q.k &.H H ' 7.' { } [ r.#XXXr.7.U.*.1.",
"$.M.$.x.M.q.M.#./ M.A.w.H ^ D.A.7.-.$.x.^ 1.~.! n.XXy Y 1.T.R.Y 3.X.:.o.U h x.3.rXM 1.y 6XY.S.r.S.&.w.S.&.A.n.M.XX<XS.S.&.r.q.r.",
"3.v.1.M.X.L M.y./ y.w.w.W } A.1.w.! -.-.x.2.G.w.w.).< I q.q.#XX.:.>.>.~ :.! 3.2.rXl $.L XXT.Y.P q.&.0.t.F XXZ.r.r.XX&.w.$.I.Y Y ",
"2.-.3.M./ m =.Y./ 1.' $.*.1.w.L M.Y v.1.^.2.1.M.:.2.# l ..I -X/ :.N.3.C H.3.y.v.kXn U *./ q.t.a P q.' *.w <Xu.r.{ 5.U 7.7.I.3 l ",
":.$.L $Xq.U n : # , 9 K 0 R I.U t.N cXq.q.*.t.U.c 1 ! ! -.-.N.2.v.x.2.M.w.n.0.<XXX*.R z z U w.%XG.$X$...*.tXi.r.9.d Z.n.n./.3.x.",
":.:.I t.$.P =.0 H k P 9.6.6.^.#.*.T.nXt.n k n 1.J L y :.'.K.!.b.g.N.x.G.S.Y.R.<XS.R q &.*.$.w.XXy.I.1.U #.7X1.0.I I r.=.-.Y :.$.",
"w.G.1.I #.*.T.U 0.P 9.<X%X5.R.q.Y qXrXI.a < 0 ! ] -.> 2.jX*X[.K.G./.v.Y.U.U.R.OXZ.P < t.G.w.y.M.7.Z.*.*.U ).1.*.b 7.1.' / l #./ ",
"-X-XtXY #.qXt.*.7 5 T OX6.9 G q.3 ! -X3.c L =.( ! o ! -.wXoXN.3X:X:X3Xw.$.] - +Xr.Z.5 R.y.w.v.G.T.t.*.#.#.T.^.*.1.G.M.*.1.OXyXZ.",
"eX+X1XH &.OXr.M.$.H { n.5.J ! g r C ( -.m m x.x.) $ ) r E.Q.n./.M.).U.G.1.$.$.Y.r.A./ Y.2.:.G.2.7XY.7X*.q.q.I.3.I.).Z.$.1.H pX*.",
"lX*XXXb ' t.I.U.Z.$.n.{ ^ ] M.g M A B N.W v ;.*Xx.u W 8 U.+X$.x.-.!.g.E.x.$.^.U.A.M.3.G.! v G.:.^.Y.nXy.t.*.w.Z.U.Y.Z.t.Z.q <X7.",
"NXjX8.a J XX5XM.L :.(.-.. ) *XrX!.B V.jX<.v.1 zXvX=XE ~.xXpX* m.*X3.$.).x.2.x.Y.3.G./ E.g $ v >.g y.tX^.T.q.q.XXT.l 1.qXqXU.Z.w.",
"xXm.1.6 &.M.w.I , u N.W 2 Q./.8XD.u :XM.( <.-.;XoXA.f J ,.w.s 2.x.:.1 /.Q.E.w.U.b y G.3X3.X.-.:.N y.$XG.I.3.w.Z.w.r.8.U.U.R.y.M.",
"N.W ] 1 w.( b l 2 g g.~ v b.>.N./ b <X' $.8.oXoXr.n.s H ^ 8.] 8.M.N.@ &X*Xn.A.n.s r Q.eXQ.E.:.G.:.y.U.N...M.-.x.,.oXA.n.m.N.M.G.",
"& m u n 1.t r - M 3.X.[.C v i n . u.R.r.8.R.-X#XM.A.n *Xn.;XoXN.*XyX* =Xn.~.~.,.^ w.m.;XM.G.m mX! Q.v.v.m b.| -.-.l.*XQ.Q.v.=XM.",
"c -.! -.2.l - J ! o.d.dX~ C <.J   9. X<Xu.6XXX#XZ.+X~.W ^ w.N.1X,.n . #X(.<X<X) ^ 2.A.v.u M l 5X:./.x.x.c H.~ j v Q N.v p N / #X",
"Q ( m M.N.m * ) 3.:.j.dXZ ~ ) ^ 9 K 9.OXS.cXS.R.U.yX~.J W <.( M.H l 6 ^.^.0XoX<./ 8.(.^.u c W 5Xy w.x.-.v O.Q A _ p.c.p c L L +X",
"( ) p A.x./ + } K.o.).}.Z X.2 L 5.7 d 9.S.tX8.1.Z.BXw.1.-.1.L r ] &.&.y.8.-X7.8.$.n.-XlXw.-.,.8Xo / | E s.v ` f.L.{.P.o.( A.<.r.",
"8.( s oXs / f 8.2.m H.d.H.C | ,.9.S.z 9 f P z I A.vXw.-.w.m $.W $.' ' 1.7.1.M.H y.w.wXiXM.-.^.-X$.J m.m.V.Q C.` !.4XW.:.m 8X] m.",
"<.A.) A.n n ] 5.w.c v v 4.N w.S.0.r.{ G H ' s ^ w.5Xw.1.q.$.U.n 1.*.&.&./ t.-X$.! 1.7XqXA.2./.$X/ m A.x.V.D.c.V s.K.g.Q N /.v.w.",
"| =X<.( 0.7 ,.I S.m $ r X...^.#X{ } ~.z.0.Z.1.1.=.Q.&.1.:.$XY.z M.r.1.*./ ^.xXM.< *.3X5XM.M.^./.6 N N.;.0.dXD.2 B ` ) u ( :.Q.G.",
"! M.$.Y / 5 ' H <X=.n ,.2.M.(.A.v.*X$.n.U.U.M.Z.! -.( 1.} 7. XZ.%Xz -XU Q.+X2.L ' * 5X#XY.^.^.W $ @.K.d.h.).E.1 K.3X! L 2.! U.:X",
"-.n L l M.t.oXz #X&.Y -X2.+XQ.E c.2X2.+X^.R.y A.:...$.x.] 7.r.u.<XH <Xw.q.1...Y z 8 qX<XI.U.) x.C b.v X.b.eX/.L 4.b.! ( ( 3.~ 2.",
"n.* l 8 oX<X5XY U.8.$.6X,.=XZ.1 D.&XA.1X+X*.X 8.1.2.-.v.8.w.] r.XX$.R.U.u / k U 7 ,.tX0X-.U.1 *XW.P.4 S b.jX;Xm.L ! ! ..-.<.i h ",
"8.. 6 u ,./ / v.^.-X1.] t r. .5 ;Xx.-.m.7.r.; 8.w.x.E.<.<.n.r.-X+X2.- @ % c o m } lXvXpX  fX) ` h.d.+.+.-.eX~.m.X.:.$...;.A j ;.",
"8.s ) b -.W x.v.G.2.N 7.f  .y f x.<.W 8 0.,.G } 7.8.W.l./.x.w.1Xm.2.c c c J X -X^ cXcX0XE bXQ ` ,XQ a.+.s.b.n.A.-.>.s. .x.V A _ ",
"c.) l.( 2.! [.:.2.M n / ] 0.7 ] | ;.,.s z.J ^ H ) ,.N.(.wX-.m.N.( >.` s.$.2.2 0XL 1X2XoXm.jXE O.dXA c.p.s.>.V.m.;.a.s.a.Q ` V S ",
"c.` E c.>.~ x.! ! m W < XXoX{ oXs.2.1X(.A.f  .f H J J jXmX2 b.B $ >.W -.E.Q.$./ ^ r.S.8.;.m.` i ` a.B.` ;.K.bXa._ _ B.V.& s._ p.",
"~ Q ` }.[.~ 2.:.W m u l <.~.,.$.( M.s (.S.z.S.) f f ) V.bX-.N._ v >.` W.m.N.n.n Z.A.A.l.l.r B O.` '.K.K.P.V.dX` @.f.>Xf.p V.V l.",
"S h.H.!.!.:.3.:. .^ u <.n./.v.:.-.w.6 =XoX&XoX0.E f )  .D.'.d.b.>.>.o.K./.w./ l XXt.r.Z.2.i Q c.E.A.b.K.&X].>XA f.|.hXp.A A ` c.",
"P.sXH.@.g.3.<.m.A.A.f 0X8XfXQ.+XM.( ] lXl.yX&Xz.) ) }  .$ V.N.K.c.s.g.x.kX:.> 9 ^.q.7.^.-.K.;.2.mXk ( ;.hX].].S k.MXhXD Q . l.c.",
"+.f.+.H.v D.+X] { 0.b =XoXM.).).( $.r cXE =X(. . .} oXJ i jXL.b.2.3.b.eX3XG.w.I t.$XZ.^.w.G.G.x.Z.I 8.c.dX|.>X|.].sXk.p W r 2.1.",
"@.@.Z j.i A.oX^ } z.J r.] W !.v.l I o zXf &XD. .) 8.&X( B 2XL.W.v.2.E.lX=X+X,.n U ^.T.XXY./.Q.M.} T m D.`.&XV.sX].F.D e x.( M.M.",
"O.+.V.( p } D.} } XX{ J s b 2.,.a t @ 0XE 2Xz.) f  .~.2...b.`.8XN.2.oX*XE.oX> # 9 w.t.Y.5XiXN.+XH ' * Q.x./.V W.L.+.@.2 (.~.oX=X",
"e h 2Xm ,.^ ,.^ / oXS.E $.n.n.E ] ] - z.) &Xl.z.J 1.A.,.c 8XfX,Xv.=X~.m.2.oXb W I =.r.5X~.5XN.n.= 0.oX;X&X1X> 2.m ~ ( c m.n.Y.5X",
"c > (.E ] ] } E P r.0.,.b Y.A.A.S.0.f | ` &Xl.| ! A.8.2.( /.b./.J } r.8.8.m.( ] 1.n.&.<XZ.-Xw.x.9 A.+X6XXXoXa 8.-.N.M.] ,.z m M.",
"2.@ H E c <.H ,.J } E Z.y ^.S.yX=X0.| m s.&Xl.E <.(.1.<.-.o.V b.1 @ l.,.<.<.,.1.n.#X$.r.+XQ.y.M.] A.A.-X~.0.5.0.#XtX-XY. .@ @ B ",
"E.N % - y n m ;X( -.1 2X2X0.5 D.Z.| ] t | 2X2X] | -.l.c.;.}.k.`.h.s.c.& l.8.0.r.0.tX$Xg 3XN ;.x.m A.^.U.<XK S.0.dX&X/.Q.).-.W ^ ",
"N...o u M Y ! G.$.( > 0XD.n.^ r.,.| -.* A.;X;X] V.<.x.c.@.P.J.P.C.B.O.u ( J I { r.Z.w.c v.!.+.a.Q N.N.Z.<Xd  .8.=X~.G.U.).3.2.;.",
"M.( : -.J W 8.( m c $ /.| 8.XXn.,.n.| > /.Q.D.<.(.m.| ;.Z a.H.F.C.a.~ o.r c ' $.8.z a s 3.9X` a.O.c.v.x.(.u b x.&XD.D.N.3.-.m.N.",
"M./ ] ] 9 / ~.2.p $ r i (.A.A.m.<.wX<.W <./.l.,.D.v.B p C +.|.P.+.>.X.>.% ;X).-X#Xt 5 u ).2.e V.a.B.s.e m.m.` s.:Xc.jXoX# ( x.l.",
"' ) J T.H ] n.] m.8.;.g.N.8.N 8.| jXA.-.8Xx.( s m.<.-.` ~ `.}.}.P.d.K.X.o.).G.-X1.n.M.@ (.m.8.'.c._ c.B x.N.>.b.>XV.wX&X2 E g.a.",
"] 7.H #Xn P m n *X;XK.E.N.( r -.z.yXz.| xXN.<.c m.V.N.D.-.dX`.3X:XP.H.+.:X).3.3X( *XjX2 (.~.=X2X`.a.n.x.N.V.H.H.gXc.m.V.v ~ p.D ",
"oX,.a ' b ; X X x.-.W m 2.m W 2.jX;XH m m.N.1X*X;X=X=X;XE.hXK.[.dXmX3 9X}.4X!.fXG.E.1X! 8X~.$XpXyX8Xn.r.8./.H._.hXa.% s.k.k.S S ",
"A.8.A.8.r.,.@ H E.V.s.~ U.! < m } ] s < -.1.n.n ~.5X8XoXr xXg.v.j.'.C K.fX{.}.[.h.!./.n -X5XqX-X-X<X^.$X1.wX}.L.].B._ Q _ k.p.S ",
"v.y.^.M.t.).< M./.~.E.2./.-.m 1.b b J t n ] M.Y 8.U.oXZ.$ -XE.2.g.<.c.c.fX[.W./.).!.H.g Q.iX3XQ.=X$X#X@XU kX:XH.V._.V.E Q h.p.p.",
"G.3.G.y.2.Y.r +X*XV.N.D./.<.vXvXZ.^ z.,.y ] -X7XI 7 8.r.z / 3XA.oX2././.(.V.j.3XfX4X4.h ).).).Q.5X~.6XI.y wX!.H.V.V.E.J | c.p.F.",
"! o.3.:.=.G.r ).(.v.8.*XE.6 $.n.9 J Y.8.l Y.eX)./ - n.-X+Xn.(.n.A.8.1.-.L e >.i {.gX!.h.9X`.+.v /.N.Q.8.: eXv d.'.;.W > r.N O.A ",
"v 4.3.:.1.y.y -.-.N.( D.n.@ I ' 5 m $.] 1.Q.5XM.1./ ,.n.=XM.-X(.A.8.7.w.3.y Q.e 3X9X4X{.4XP.f.V B.2./.w.c 3XO.x.c.>.] H 7.$.<.W ",
"M G.3.:.l.] y t n 8.1.,.8.5 8.&.,.m r c 3XM.N.-.).0Xu 8 ~.l.yXjXU.q.t.#X5X$XkX3.dX}.4X9XC.k.sXf.h.b.2Xm.;X8X,XW.g G.).7X&.r.q.7.",
"Q.).^.3.| ) c b (.(.;X-.n.L I / 1X$.8.( /.3.Q...8 w.b 2.D.m.oXE.y.G.N 3.Q./.3X1 2.E.`.`._._.k.f.W.9XK.$.lX2X=X`.d.o.$X5XM.q.5 H ",
"oXG.Y.Q.0.0.,.0.<XA.oX^ /.^.0.#.M.v v.N d.v.K.v.4 -.~ V.V.m.D.E.g.N.) ..x.! Q.8 x.>.a.;.a.k.D f.dXwXw.-.1X+Xx.` h.:.!.).$.8.H $.",
"N.w.w.yXoXXX;XS.-X8.1.a lXqXT.,.i $ ~ M @.N.K.{.> -.2.(.,.V.D.`.2.>.2.>.) : ,.:.G.( ~ v Z f.i +.jX*X-.U.n.A.c r >.4.K.G.N ,.XX&X"
};
