/* XPM */
static char *_937_f7463f96db1051bbf5e22c87ab8d7502297b7cb9be8c669dd813a76291e55e93[] = {
/* columns rows colors chars-per-pixel */
"64 64 21 1 ",
"  c #583C28",
". c #785439",
"X c gray42",
"o c #926948",
"O c #946B49",
"+ c #956B49",
"@ c #56962C",
"# c #58972F",
"$ c #659E3E",
"% c #649F3E",
"& c #659F3F",
"* c #60A036",
"= c #67A041",
"- c #70A94A",
"; c #72B248",
": c #B6825A",
"> c #B7845A",
", c #B8845B",
"< c #80BA5A",
"1 c #9BCA6B",
"2 c None",
/* pixels */
"2222222222222222222222222222222222222222222222222222222222222222",
"2222222222222222222222222222222222222222222222222222222222222222",
"2222222222222222222222222222222222222222222222222222222222222222",
"2222222222222222222222222222222222222222222222222222222222222222",
"22222&==<<<<====----====<<<<====<<<<====<<<<--------<<<<==&22222",
"2222$#@@;;;;@@@@****@@@@;;;;@@@@;;;;@@@@;;;;********;;;;@@#%2222",
"2222#@@@;;;;@@@@****@@@@;;;;@@@@;;;;@@@@;;;;********;;;;@@@#2222",
"2222@@@@;;;;@@@@****@@@@;;;;@@@@;;;;@@@@;;;;********;;;;@@@@2222",
"2222;;;;@@@@****;;;;****@@@@;;;;@@@@****;;;;;;;;****@@@@;;;;2222",
"2222;;;;@@@@****;;;;****@@@@;;;;@@@@****;;;;;;;;****@@@@;;;;2222",
"2222;;;;@@@@****;;;;****@@@@;;;;@@@@****;;;;;;;;****@@@@;;;;2222",
"2222;;;;@@@@****;;;;****@@@@;;;;@@@@****;;;;;;;;****@@@@;;;;2222",
"2222********;;;;********    1111++++;;;;;;;;@@@@;;;;    ;;;;2222",
"2222********;;;;********    1111++++;;;;;;;;@@@@;;;;    ;;;;2222",
"2222********;;;;********    1111++++;;;;;;;;@@@@;;;;    ;;;;2222",
"2222********;;;;********    1111++++;;;;;;;;@@@@;;;;    ;;;;2222",
"2222;;;;    @@@@        ....++++XXXX1111@@@@,,,,@@@@....@@@@2222",
"2222;;;;    @@@@        ....++++XXXX1111@@@@,,,,@@@@....@@@@2222",
"2222;;;;    @@@@        ....++++XXXX1111@@@@,,,,@@@@....@@@@2222",
"2222;;;;    @@@@        ....++++XXXX1111@@@@,,,,@@@@....@@@@2222",
"2222    ....        ........,,,,,,,,++++....++++,,,,    ,,,,2222",
"2222    ....        ........,,,,,,,,++++....++++,,,,    ,,,,2222",
"2222    ....        ........,,,,,,,,++++....++++,,,,    ,,,,2222",
"2222    ....        ........,,,,,,,,++++....++++,,,,    ,,,,2222",
"2222++++....++++........,,,,....,,,,    ....    ,,,,........2222",
"2222++++....++++........,,,,....,,,,    ....    ,,,,........2222",
"2222++++....++++........,,,,....,,,,    ....    ,,,,........2222",
"2222++++....++++........,,,,....,,,,    ....    ,,,,........2222",
"2222++++,,,,....XXXX    XXXX    ....    ....    ++++    ,,,,2222",
"2222++++,,,,....XXXX    XXXX    ....    ....    ++++    ,,,,2222",
"2222++++,,,,....XXXX    XXXX    ....    ....    ++++    ,,,,2222",
"2222++++,,,,....XXXX    XXXX    ....    ....    ++++    ,,,,2222",
"2222,,,,++++    ,,,,++++....++++........,,,,....,,,,....XXXX2222",
"2222,,,,++++    ,,,,++++....++++........,,,,....,,,,....XXXX2222",
"2222,,,,++++    ,,,,++++....++++........,,,,....,,,,....XXXX2222",
"2222,,,,++++    ,,,,++++....++++........,,,,....,,,,....XXXX2222",
"2222    XXXX    ....    ....        ....,,,,++++    ,,,,    2222",
"2222    XXXX    ....    ....        ....,,,,++++    ,,,,    2222",
"2222    XXXX    ....    ....        ....,,,,++++    ,,,,    2222",
"2222    XXXX    ....    ....        ....,,,,++++    ,,,,    2222",
"2222++++....++++........,,,,....,,,,    ,,,,....,,,,    ++++2222",
"2222++++....++++........,,,,....,,,,    ,,,,....,,,,    ++++2222",
"2222++++....++++........,,,,....,,,,    ,,,,....,,,,    ++++2222",
"2222++++....++++........,,,,....,,,,    ,,,,....,,,,    ++++2222",
"2222    ....,,,,    XXXX    ,,,,++++        ,,,,++++    ,,,,2222",
"2222    ....,,,,    XXXX    ,,,,++++        ,,,,++++    ,,,,2222",
"2222    ....,,,,    XXXX    ,,,,++++        ,,,,++++    ,,,,2222",
"2222    ....,,,,    XXXX    ,,,,++++        ,,,,++++    ,,,,2222",
"2222++++....++++........,,,,++++    ,,,,....    ,,,,....XXXX2222",
"2222++++....++++........,,,,++++    ,,,,....    ,,,,....XXXX2222",
"2222++++....++++........,,,,++++    ,,,,....    ,,,,....XXXX2222",
"2222++++....++++........,,,,++++    ,,,,....    ,,,,....XXXX2222",
"2222,,,,    ++++....,,,,++++++++    ....,,,,    ............2222",
"2222,,,,    ++++....,,,,++++++++    ....,,,,    ............2222",
"2222,,,,    ++++....,,,,++++++++    ....,,,,    ............2222",
"2222,,,,    ++++....,,,,++++++++    ....,,,,    ............2222",
"2222++++....    ....,,,,XXXX    ....    ,,,,....    ....,,,,2222",
"2222++++....    ....,,,,XXXX    ....    ,,,,....    ....,,,,2222",
"2222O+++....    ....,,,,XXXX    ....    ,,,,....    ....,,,>2222",
"22222o++....    ....,,,,XXXX    ....    ,,,,....    ....,,:22222",
"2222222222222222222222222222222222222222222222222222222222222222",
"2222222222222222222222222222222222222222222222222222222222222222",
"2222222222222222222222222222222222222222222222222222222222222222",
"2222222222222222222222222222222222222222222222222222222222222222"
};
