/* XPM */
static char *_ae6a5486206484ec385cbf8029c9138zbt1f1rkG3QKlmtX[] = {
/* columns rows colors chars-per-pixel */
"32 32 13 1 ",
"  c None",
". c black",
"X c #300000",
"o c #400000",
"O c #600000",
"+ c #800000",
"@ c #A00000",
"# c #C00000",
"$ c #E00000",
"% c red",
"& c #C06060",
"* c #FF8080",
"= c #FFC0C0",
/* pixels */
"                                ",
"               ...              ",
"              .$+@.             ",
"             .$.+.@.            ",
"             .$+++@.            ",
"              .@.+@.            ",
"              .#.@.             ",
"             .=*+@..            ",
"            .*=*+#*&..          ",
"           .$#*=##=&#$...       ",
"          .%#$#*%#=*##$$$.      ",
"         .%$@#$%$**#@&*#$#..    ",
"        .$#@@#$$#=*@o*=o#*##.   ",
"     ...&$#@@=$*@*#@.=#.#=*.    ",
"    .*=**##o=*#=@@+o.*@.o%=#.   ",
"     .=##o$.*#$=##+..#@..#*#.   ",
"    .#*#@.$.o@%*$#o..@...#%.    ",
"    .#o#@.#..@$%$#@... .###.    ",
"    .@.#o.@..@#$#@+O.  .@#.     ",
"    .@.=o.+..+@##@+O.  .+@.     ",
"    .+.=..+..O+#@++O.   .@.     ",
"     ..#. ...OO+@+Oo.   .+.     ",
"      .@.  . .OO+OoX.   .+.     ",
"      .+.    .oo+Oo.     .      ",
"       .      .oOoo.            ",
"               .ooX.            ",
"               .ooX.            ",
"                .oX.            ",
"                .X.             ",
"                .X.             ",
"                 .              ",
"                                "
};
